<svg width="71" height="50" viewBox="0 0 71 50" fill="none" xmlns="http://www.w3.org/2000/svg">
<mask id="mask0_1655_26323" style="mask-type:luminance" maskUnits="userSpaceOnUse" x="0" y="0" width="71" height="50">
<path d="M0.363281 0H70.3633V49.85H0.363281V0Z" fill="white"/>
</mask>
<g mask="url(#mask0_1655_26323)">
<path d="M67.6273 27.2185C67.6273 27.2959 67.5997 27.3733 67.5444 27.4285L64.4882 30.4792C64.2727 30.6948 64.1511 30.9932 64.1511 31.2972V40.5708C64.1511 41.853 63.1121 42.892 61.8299 42.892C60.5533 42.892 59.5143 41.853 59.5143 40.5708V31.2972C59.5143 30.9932 59.3927 30.6948 59.1716 30.4792L56.1209 27.4285C56.0657 27.3733 56.038 27.2959 56.038 27.2185V25.5053H67.6273V27.2185ZM66.4667 47.5288H57.1931V44.0526H58.7682C59.5861 44.771 60.6583 45.2132 61.8299 45.2132C63.0071 45.2132 64.0792 44.771 64.8917 44.0526H66.4667V47.5288ZM52.5563 37.0946H57.1931V40.5708C57.1931 40.9743 57.2484 41.3611 57.3423 41.7314H56.9057C55.7893 41.7314 54.8774 42.6433 54.8774 43.7597V47.5288H52.5563V37.0946ZM21.2591 47.5288V37.0946H23.5747V47.5288H21.2591ZM7.34862 45.2132H18.9379V47.5288H7.34862V45.2132ZM2.7118 46.6611V20.5756C2.7118 20.0947 3.09866 19.7079 3.57948 19.7079H5.02745V47.5288H3.57948C3.09866 47.5288 2.7118 47.1364 2.7118 46.6611ZM5.02745 11.5948C5.02745 10.9537 5.54695 10.4342 6.18804 10.4342C6.82912 10.4342 7.34862 10.9537 7.34862 11.5948V12.7499H5.02745V11.5948ZM16.6223 11.5948V17.3867H9.66427V11.5948C9.66427 11.1859 9.59243 10.7935 9.46531 10.4342H15.4617C16.1028 10.4342 16.6223 10.9537 16.6223 11.5948ZM16.5781 40.5708H18.9379V42.892H16.567L16.5781 40.5708ZM16.6057 33.6183L16.6167 31.2972H18.9379V33.6183H16.6057ZM16.5946 35.934H18.9379V38.2552H16.5836L16.5946 35.934ZM11.9854 35.934H14.279L14.2679 38.2552H11.9854V35.934ZM7.34862 35.934H9.66427V38.2552H7.34862V35.934ZM9.66427 33.6183H7.34862V31.2972H9.66427V33.6183ZM11.9854 31.2972H14.2956L14.29 33.6183H11.9854V31.2972ZM18.9379 28.9815H7.34862V24.3447H18.9379V28.9815ZM7.34862 19.7079H18.9379V22.0235H7.34862V19.7079ZM7.34862 42.892V40.5708H9.66427V42.892H7.34862ZM11.9854 42.892V40.5708H14.2569L14.2458 42.892H11.9854ZM40.6409 30.1421H45.9243L47.4718 34.7789H39.099L40.6409 30.1421ZM25.8959 26.9533V3.18885C25.8959 2.70804 26.2828 2.31565 26.7636 2.31565H59.8017C60.2825 2.31565 60.6749 2.70804 60.6749 3.18885V18.5473H58.3537V5.79741C58.3537 5.15632 57.8342 4.63682 57.1931 4.63682H29.3722C28.7311 4.63682 28.2116 5.15632 28.2116 5.79741V24.3447C28.2116 24.9858 28.7311 25.5053 29.3722 25.5053H53.7169V27.2185C53.7169 27.4285 53.7445 27.6275 53.7887 27.8209H26.7636C26.2828 27.8209 25.8959 27.4341 25.8959 26.9533ZM56.038 18.5639C54.7337 18.7076 53.7169 19.8184 53.7169 21.1558V23.1841H30.5327V6.95247H56.038V18.5639ZM50.2406 37.0946V47.5288H25.8959V37.0946H50.2406ZM57.1931 34.7789H49.9146L48.3726 30.1421H55.5572L57.1931 31.778V34.7789ZM67.6273 21.1558V23.1841H56.038V21.1558C56.038 20.9956 56.1651 20.8685 56.3254 20.8685H67.3399C67.5002 20.8685 67.6273 20.9956 67.6273 21.1558ZM67.3399 18.5473H62.9905V3.18885C62.9905 1.43139 61.5591 0 59.8017 0H26.7636C25.0061 0 23.5747 1.43139 23.5747 3.18885V26.9533C23.5747 28.7107 25.0061 30.1421 26.7636 30.1421H38.1981L36.6507 34.7789H21.2591V19.415C21.2591 18.2986 20.3472 17.3867 19.2308 17.3867H18.9379V11.5948C18.9379 9.67709 17.3794 8.11306 15.4617 8.11306H6.18804C4.2703 8.11306 2.7118 9.67709 2.7118 11.5948V13.9105C2.7118 14.5516 3.2313 15.0711 3.86686 15.0711H7.34862V17.3867H3.57948C1.82202 17.3867 0.390625 18.8181 0.390625 20.5756V46.6611C0.390625 48.4186 1.82202 49.85 3.57948 49.85H67.6273C68.2684 49.85 68.7879 49.3305 68.7879 48.6894V43.7597C68.7879 42.6433 67.876 41.7314 66.7597 41.7314H66.323C66.417 41.3611 66.4667 40.9743 66.4667 40.5708V31.778L69.1803 29.0644C69.6777 28.5726 69.9485 27.9204 69.9485 27.2185V21.1558C69.9485 19.7189 68.7769 18.5473 67.3399 18.5473Z" fill="#CB6CE6"/>
</g>
</svg>
