<svg width="71" height="51" viewBox="0 0 71 51" fill="none" xmlns="http://www.w3.org/2000/svg">
<mask id="mask0_1655_26360" style="mask-type:luminance" maskUnits="userSpaceOnUse" x="0" y="0" width="54" height="51">
<path d="M0.363281 0.923828H53.2733V50.9262H0.363281V0.923828Z" fill="white"/>
</mask>
<g mask="url(#mask0_1655_26360)">
<path d="M52.08 17.6814L28.9495 1.10602C28.7046 0.928853 28.3659 0.928853 28.121 1.10602L4.99043 17.6814C4.80284 17.8169 4.69342 18.0306 4.69342 18.2598V28.3374C4.69342 28.4468 4.71426 28.5459 4.75595 28.6396C4.02644 29.0252 3.35425 29.5151 2.76544 30.1039C2.00988 30.8594 1.42106 31.7348 1.00941 32.7092C0.582134 33.7201 0.363281 34.7935 0.363281 35.9034C0.363281 37.0081 0.582134 38.0815 1.00941 39.0924C1.42106 40.0668 2.00988 40.9422 2.76544 41.6978C3.33862 42.271 3.98476 42.7504 4.69342 43.1255V50.1705C4.69342 50.5665 5.01127 50.8896 5.40729 50.8896H11.7123C12.1083 50.8896 12.4262 50.5665 12.4262 50.1705V43.1255C13.1348 42.7504 13.781 42.271 14.3542 41.6978C15.1097 40.9422 15.6985 40.0668 16.1102 39.0924C16.5375 38.0815 16.7563 37.0081 16.7563 35.9034C16.7563 34.7935 16.5375 33.7201 16.1102 32.7092C15.6985 31.7348 15.1097 30.8594 14.3542 30.1039C13.781 29.5307 13.1348 29.0513 12.4262 28.6761V23.111H21.2949C21.6857 23.111 22.0088 22.788 22.0088 22.3972C22.0088 22.0011 21.6857 21.6833 21.2949 21.6833H11.7123C11.3215 21.6833 10.9984 22.0011 10.9984 22.3972V28.0769C10.2116 27.832 9.39352 27.7069 8.5598 27.7069C7.72087 27.7069 6.90799 27.832 6.12116 28.0769V18.6298L28.5378 2.56503L50.9493 18.6298V49.4566H46.072V22.3972C46.072 22.0011 45.7542 21.6833 45.3581 21.6833H36.3852C35.9892 21.6833 35.6714 22.0011 35.6714 22.3972C35.6714 22.788 35.9892 23.111 36.3852 23.111H44.6443V50.1705C44.6443 50.5665 44.9621 50.8896 45.3581 50.8896H51.6632C52.0592 50.8896 52.3822 50.5665 52.3822 50.1705V18.2598C52.3822 18.0306 52.2676 17.8169 52.08 17.6814ZM6.12116 49.4566V43.73C6.90799 43.9749 7.72087 44.0947 8.5598 44.0947C9.39352 44.0947 10.2116 43.9749 10.9984 43.73V49.4566H6.12116ZM13.4631 31.0001C14.771 32.308 15.4953 34.0484 15.4953 35.9034C15.4953 37.7533 14.771 39.4936 13.4631 40.8068C12.1552 42.1147 10.4096 42.8337 8.5598 42.8337C6.70998 42.8337 4.96438 42.1147 3.65648 40.8068C2.34858 39.4936 1.62428 37.7533 1.62428 35.9034C1.62428 34.0484 2.34858 32.308 3.65648 31.0001C4.96438 29.687 6.70998 28.9679 8.5598 28.9679C10.4096 28.9679 12.1552 29.687 13.4631 31.0001Z" fill="#CB6CE6"/>
</g>
<mask id="mask1_1655_26360" style="mask-type:luminance" maskUnits="userSpaceOnUse" x="17" y="29" width="23" height="22">
<path d="M17.2539 29.7703H39.9311V50.9259H17.2539V29.7703Z" fill="white"/>
</mask>
<g mask="url(#mask1_1655_26360)">
<path d="M38.1968 39.7958H34.0803V30.849C34.0803 30.4529 33.7573 30.1299 33.3664 30.1299H23.7005C23.3097 30.1299 22.9866 30.4529 22.9866 30.849V39.7958H18.8701C18.4741 39.7958 18.1562 40.1137 18.1562 40.5097V50.1704C18.1562 50.5665 18.4741 50.8895 18.8701 50.8895H38.1968C38.5928 50.8895 38.9107 50.5665 38.9107 50.1704V40.5097C38.9107 40.1137 38.5928 39.7958 38.1968 39.7958ZM32.5536 41.2236H34.1741V43.0786H32.5536V41.2236ZM29.3437 31.5628V33.4179H27.7232V31.5628H29.3437ZM24.4144 31.5628H26.2954V34.1317C26.2954 34.5225 26.6133 34.8456 27.0093 34.8456H30.0576C30.4536 34.8456 30.7715 34.5225 30.7715 34.1317V31.5628H32.6526V39.7958H24.4144V31.5628ZM23.7005 41.2236H24.5134V43.0786H22.8928V41.2236H23.7005ZM19.584 41.2236H21.4599V43.7925C21.4599 44.1885 21.7829 44.5064 22.1737 44.5064H25.2272C25.6233 44.5064 25.9411 44.1885 25.9411 43.7925V41.2236H27.817V49.4566H19.584V41.2236ZM37.4829 49.4566H29.2499V41.2236H31.1258V43.7925C31.1258 44.1885 31.4437 44.5064 31.8397 44.5064H34.8932C35.284 44.5064 35.6071 44.1885 35.6071 43.7925V41.2236H37.4829V49.4566Z" fill="#CB6CE6"/>
</g>
<path d="M22.4665 19.6614C22.2424 19.8646 22.1695 20.1876 22.2841 20.469L22.8729 21.8916C22.9876 22.1677 23.2689 22.3449 23.5712 22.3293L24.7592 22.272L25.1709 22.6784L25.1083 23.8717C25.0927 24.1739 25.2699 24.45 25.5512 24.5647L26.9738 25.1587C27.0624 25.1952 27.1562 25.2108 27.2447 25.2108C27.4427 25.2108 27.6408 25.1274 27.7762 24.9763L28.5735 24.0905H29.1571L29.9543 24.9763C30.1576 25.2004 30.4754 25.2733 30.7568 25.1587L32.1793 24.5647C32.4607 24.45 32.6379 24.1739 32.6222 23.8717L32.5597 22.6784L32.9714 22.272L34.1594 22.3293C34.4616 22.3449 34.743 22.1677 34.8577 21.8916L35.4465 20.469C35.5611 20.1876 35.4882 19.8646 35.2641 19.6614L34.3783 18.8641V18.2857L35.2641 17.4885C35.4882 17.2853 35.5611 16.9622 35.4465 16.6808L34.8577 15.2583C34.743 14.9821 34.4616 14.8049 34.1594 14.8206L32.9714 14.8779L32.5597 14.4715L32.6222 13.2782C32.6379 12.976 32.4607 12.6998 32.1793 12.5852L30.7568 11.9911C30.4754 11.8765 30.1576 11.9494 29.9543 12.1735L29.1571 13.0593H28.5735L27.7762 12.1735C27.573 11.9494 27.25 11.8765 26.9738 11.9911L25.5512 12.5852C25.2699 12.6998 25.0927 12.976 25.1083 13.2782L25.1709 14.4715L24.7592 14.8779L23.5712 14.8206C23.2689 14.8049 22.9876 14.9821 22.8729 15.2583L22.2841 16.6808C22.1695 16.9622 22.2424 17.2853 22.4665 17.4885L23.3471 18.2857V18.8641L22.4665 19.6614ZM24.5404 17.4364L23.7952 16.7642L23.9984 16.2692L25.0041 16.3213C25.2073 16.3317 25.4053 16.2587 25.546 16.1128L26.4058 15.2583C26.5465 15.1124 26.6247 14.9144 26.6142 14.7164L26.5621 13.7107L27.0519 13.5075L27.7293 14.2526C27.8648 14.4037 28.0576 14.4871 28.2556 14.4871H29.4697C29.673 14.4871 29.8657 14.4037 30.0012 14.2526L30.6786 13.5075L31.1684 13.7107L31.1163 14.7164C31.1059 14.9144 31.1841 15.1124 31.3248 15.2583L32.1845 16.1128C32.3252 16.2587 32.5232 16.3317 32.7265 16.3213L33.7321 16.2692L33.9353 16.7642L33.1902 17.4364C33.0391 17.5719 32.9505 17.7646 32.9505 17.9679V19.182C32.9505 19.3852 33.0391 19.578 33.1902 19.7135L33.9353 20.3857L33.7321 20.8807L32.7265 20.8286C32.5232 20.8181 32.3252 20.8911 32.1845 21.037L31.3248 21.8916C31.1841 22.0375 31.1059 22.2355 31.1163 22.4335L31.1684 23.4392L30.6786 23.6424L30.0012 22.8972C29.8657 22.7461 29.673 22.6628 29.4749 22.6628H28.2608C28.0576 22.6628 27.8648 22.7461 27.7293 22.8972L27.0519 23.6424L26.5621 23.4392L26.6142 22.4335C26.6247 22.2355 26.5465 22.0375 26.4058 21.8916L25.546 21.037C25.4053 20.8911 25.2073 20.8181 25.0041 20.8286L23.9984 20.8807L23.7952 20.3857L24.5404 19.7135C24.6915 19.578 24.7801 19.3852 24.7801 19.182V17.9679C24.7801 17.7646 24.6915 17.5719 24.5404 17.4364Z" fill="#CB6CE6"/>
<path d="M28.8635 21.8083C30.6456 21.8083 32.0941 20.3598 32.0941 18.5777C32.0941 16.7956 30.6456 15.3418 28.8635 15.3418C27.0814 15.3418 25.6328 16.7956 25.6328 18.5777C25.6328 20.3598 27.0814 21.8083 28.8635 21.8083ZM28.8635 16.7748C29.8587 16.7748 30.6664 17.5824 30.6664 18.5777C30.6664 19.5677 29.8587 20.3806 28.8635 20.3806C27.8682 20.3806 27.0606 19.5677 27.0606 18.5777C27.0606 17.5824 27.8682 16.7748 28.8635 16.7748Z" fill="#CB6CE6"/>
<path d="M8.78259 39.603H8.33446C8.03745 39.603 7.75086 39.4675 7.53201 39.2226C7.29752 38.9516 7.16725 38.5869 7.16725 38.196C7.16725 37.8469 6.88587 37.5655 6.53675 37.5655C6.18763 37.5655 5.90625 37.8469 5.90625 38.196C5.90625 38.8943 6.15116 39.5508 6.58886 40.0511C6.81292 40.3012 7.07346 40.4992 7.36005 40.6399C7.54243 40.7285 7.73523 40.791 7.92802 40.8275V41.3902C7.92802 41.7394 8.2094 42.0207 8.55852 42.0207C8.90764 42.0207 9.18903 41.7394 9.18903 41.3902V40.8275C9.38182 40.791 9.56941 40.7285 9.757 40.6399C10.0436 40.4992 10.3041 40.3012 10.523 40.0511C10.9659 39.5508 11.2108 38.8943 11.2108 38.196C11.2108 37.0184 10.5334 35.9763 9.52251 35.5959L8.03745 35.0331C7.79254 34.9393 7.5789 34.7569 7.42258 34.512C7.25584 34.2463 7.16725 33.9336 7.16725 33.6054C7.16725 33.2146 7.29752 32.8498 7.53201 32.5841C7.75086 32.3339 8.03745 32.1985 8.33446 32.1985H8.78259C9.0796 32.1985 9.36619 32.3339 9.57983 32.5841C9.81953 32.8498 9.9498 33.2146 9.9498 33.6054C9.9498 33.9545 10.2312 34.2359 10.5803 34.2359C10.9294 34.2359 11.2108 33.9545 11.2108 33.6054C11.2108 32.9123 10.9659 32.2506 10.5282 31.7503C10.3041 31.5002 10.0436 31.3022 9.757 31.1615C9.56941 31.0729 9.38182 31.0104 9.18903 30.9739V30.4112C9.18903 30.0673 8.90764 29.7859 8.55852 29.7859C8.2094 29.7859 7.92802 30.0673 7.92802 30.4112V30.9739C7.73523 31.0104 7.54243 31.0729 7.36005 31.1615C7.07346 31.3022 6.81292 31.5002 6.58886 31.7503C6.15116 32.2506 5.90625 32.9123 5.90625 33.6054C5.90625 34.783 6.58365 35.8252 7.59453 36.2107L9.0796 36.7683C9.32451 36.8621 9.53815 37.0445 9.69447 37.2894C9.86121 37.5551 9.9498 37.8678 9.9498 38.196C9.9498 38.5869 9.81953 38.9516 9.57983 39.2226C9.36098 39.4675 9.0796 39.603 8.78259 39.603Z" fill="#CB6CE6"/>
<mask id="mask2_1655_26360" style="mask-type:luminance" maskUnits="userSpaceOnUse" x="53" y="19" width="18" height="19">
<path d="M53.2734 19.0986H70.3647V37.774H53.2734V19.0986Z" fill="white"/>
</mask>
<g mask="url(#mask2_1655_26360)">
<path d="M69.7071 25.4036C69.285 24.3927 68.6754 23.486 67.899 22.7096C67.1226 21.928 66.2159 21.3184 65.205 20.8963C64.1733 20.4586 63.079 20.2397 61.9483 20.2397C61.9326 20.2397 61.917 20.2397 61.9014 20.2397C60.7654 20.245 59.666 20.4742 58.629 20.9224C57.6338 21.3548 56.7375 21.9697 55.9663 22.7461C55.2004 23.5277 54.5959 24.4344 54.179 25.4401C53.7466 26.4822 53.5329 27.5869 53.5433 28.7229C53.5642 30.8488 54.3771 32.8654 55.8309 34.413L54.8512 36.5911C54.7053 36.9142 54.7731 37.2789 55.0232 37.5238C55.1795 37.6801 55.3879 37.7687 55.6068 37.7687C55.7318 37.7687 55.8465 37.7427 55.9611 37.6906L58.5978 36.466C58.6395 36.4452 58.6811 36.4348 58.728 36.4348C58.7697 36.4348 58.8062 36.4452 58.8479 36.4608C59.8275 36.8516 60.8644 37.0496 61.9274 37.0496H61.9483C63.0582 37.0496 64.142 36.8308 65.1737 36.3931C66.169 35.971 67.0652 35.3666 67.8416 34.6006C68.618 33.8294 69.2329 32.9384 69.6654 31.9483C70.1135 30.9166 70.3428 29.8275 70.3532 28.7124C70.3636 27.5661 70.1448 26.451 69.7071 25.4036ZM68.962 28.702C68.9307 32.4694 65.7209 35.6584 61.9483 35.6584H61.9326C61.0416 35.6532 60.1766 35.4916 59.3585 35.1633C59.1605 35.0852 58.9469 35.0435 58.728 35.0435C58.4779 35.0435 58.233 35.0956 58.0089 35.1998L56.7375 35.7886L57.1388 34.9028C57.3524 34.4286 57.2586 33.8815 56.8991 33.5063C55.6485 32.2141 54.9554 30.5101 54.9346 28.7124C54.919 26.8366 55.6381 25.0701 56.9616 23.7257C58.2799 22.3866 60.0359 21.6414 61.9118 21.6362C61.9118 21.6362 61.9379 21.6362 61.9483 21.6362C63.8242 21.6362 65.5854 22.3657 66.9141 23.6945C68.2481 25.0284 68.9724 26.8105 68.962 28.702Z" fill="#CB6CE6"/>
</g>
<path d="M63.4556 25.2944C63.4556 25.6279 63.3357 25.9145 63.096 26.149C62.8615 26.3887 62.5749 26.5033 62.2414 26.5033C61.908 26.5033 61.6214 26.3887 61.3817 26.149C61.1472 25.9145 61.0273 25.6279 61.0273 25.2944C61.0273 24.9557 61.1472 24.6743 61.3817 24.4347C61.6214 24.2002 61.908 24.0803 62.2414 24.0803C62.5749 24.0803 62.8615 24.2002 63.096 24.4347C63.3357 24.6743 63.4556 24.9557 63.4556 25.2944Z" fill="#CB6CE6"/>
<path d="M63.901 32.2661C63.8437 32.2557 63.7863 32.2714 63.7342 32.3026C63.5727 32.4016 63.3695 32.4902 63.1663 32.5632C62.7963 32.6986 62.4211 32.3756 62.4993 31.99L63.307 27.8631C63.3799 27.4775 63.0881 27.1179 62.6921 27.1179H60.144C60.0711 27.1179 60.0138 27.144 59.9669 27.1804C59.8105 27.3107 59.8157 27.5504 59.9669 27.6859C60.0554 27.7693 60.144 27.7693 60.144 27.7693L60.54 27.7953C60.7954 27.8162 60.9777 28.0559 60.9256 28.3112C60.6964 29.4159 60.1961 32.0733 60.243 32.3704C60.2899 32.6465 60.4046 33.4125 61.8375 33.5167C63.2496 33.6209 63.9635 32.8185 64.0312 32.5058C64.0729 32.3235 63.9844 32.2714 63.901 32.2661Z" fill="#CB6CE6"/>
</svg>
