<svg width="53" height="66" viewBox="0 0 53 66" fill="none" xmlns="http://www.w3.org/2000/svg">
<path d="M31.501 5.55176H21.0916C20.3709 5.55176 19.793 6.13648 19.793 6.85719C19.793 7.57789 20.3709 8.15582 21.0916 8.15582H31.501C32.2218 8.15582 32.8065 7.57789 32.8065 6.85719C32.8065 6.13648 32.2218 5.55176 31.501 5.55176Z" fill="#CB6CE6"/>
<mask id="mask0_1655_26383" style="mask-type:luminance" maskUnits="userSpaceOnUse" x="0" y="0" width="53" height="66">
<path d="M0.265625 0.350342H52.4556V65.4995H0.265625V0.350342Z" fill="white"/>
</mask>
<g mask="url(#mask0_1655_26383)">
<path d="M48.4238 2.9544H39.3129C39.3129 1.51979 38.1435 0.350342 36.7089 0.350342H15.8832C14.4554 0.350342 13.2791 1.51979 13.2791 2.9544H4.17512C2.0266 2.9544 0.265625 4.70857 0.265625 6.85709V61.522C0.265625 63.6705 2.0266 65.4247 4.17512 65.4247H48.4238C50.5723 65.4247 52.3264 63.6705 52.3264 61.522V6.85709C52.3264 4.70857 50.5723 2.9544 48.4238 2.9544ZM15.8832 2.9544H36.7089V10.7598H15.8832V2.9544ZM49.7224 61.522C49.7224 62.2359 49.1377 62.8206 48.4238 62.8206H4.17512C3.45441 62.8206 2.86969 62.2359 2.86969 61.522V6.85709C2.86969 6.14319 3.45441 5.55166 4.17512 5.55166H13.2791V8.15572H6.77238C6.05847 8.15572 5.47375 8.74045 5.47375 9.46115V49.8071C5.47375 50.1607 5.61653 50.487 5.8477 50.7318L14.9585 59.8426C15.2101 60.0738 15.5364 60.2165 15.8832 60.2165H45.8197C46.5336 60.2165 47.1251 59.6318 47.1251 58.9179V38.0922C47.1251 37.3783 46.5336 36.7936 45.8197 36.7936C45.1058 36.7936 44.5211 37.3783 44.5211 38.0922V57.6193H17.1886V49.8071C17.1886 49.0932 16.6039 48.5085 15.8832 48.5085H8.07781V10.7598H13.2791C13.2791 12.1944 14.4554 13.3638 15.8832 13.3638H36.7089C38.1435 13.3638 39.3129 12.1944 39.3129 10.7598H44.5211V27.6828C44.5211 28.3967 45.1058 28.9814 45.8197 28.9814C46.5336 28.9814 47.1251 28.3967 47.1251 27.6828V9.46115C47.1251 8.74045 46.5336 8.15572 45.8197 8.15572H39.3129V5.55166H48.4238C49.1377 5.55166 49.7224 6.14319 49.7224 6.85709V61.522ZM9.91357 51.1057H14.5846V55.7835L9.91357 51.1057Z" fill="#CB6CE6"/>
</g>
<path d="M40.6144 41.9951H34.9167L36.5689 38.6771C36.8952 38.0312 36.6369 37.2493 35.9978 36.9366C35.345 36.6102 34.5631 36.8686 34.2504 37.5077L31.9999 41.9951H27.1045L24.854 37.5077C24.5412 36.8686 23.7594 36.6102 23.1134 36.9366C22.4743 37.2493 22.216 38.0312 22.5423 38.6771L24.1945 41.9951H18.49C17.7761 41.9951 17.1914 42.5866 17.1914 43.3005C17.1914 44.0145 17.7761 44.5992 18.49 44.5992H19.9518L21.1077 53.8664C21.1825 54.5191 21.7468 55.0154 22.3927 55.0154H36.7117C37.3644 55.0154 37.9219 54.5191 38.0035 53.8664L39.1593 44.5992H40.6144C41.3351 44.5992 41.9198 44.0145 41.9198 43.3005C41.9198 42.5866 41.3351 41.9951 40.6144 41.9951ZM28.2536 52.4114H23.5418L23.2154 49.8073H28.2536V52.4114ZM28.2536 47.2032H22.8891L22.5627 44.5992H28.2536V47.2032ZM35.5694 52.4114H30.8576V49.8073H35.8958L35.5694 52.4114ZM36.2153 47.2032H30.8576V44.5992H36.5417L36.2153 47.2032Z" fill="#CB6CE6"/>
<path d="M12.7412 22.0396C13.258 22.6175 14.1758 22.6175 14.6858 22.0396L18.1601 18.1369C18.6361 17.593 18.5885 16.7771 18.0513 16.2943C17.5142 15.8184 16.6915 15.866 16.2156 16.4031L13.7135 19.2111L12.952 18.3545C12.4761 17.8173 11.6534 17.7697 11.1162 18.2457C10.5791 18.7284 10.5315 19.5511 11.0075 20.0882C11.0075 20.0882 12.7412 22.0328 12.7412 22.0396Z" fill="#CB6CE6"/>
<path d="M12.7412 29.8451C13.2512 30.423 14.1758 30.423 14.6858 29.8451L18.1601 25.9424C18.6361 25.4053 18.5885 24.5826 18.0513 24.1066C17.5142 23.6239 16.6915 23.6783 16.2156 24.2154L13.7135 27.0234L12.952 26.1668C12.4761 25.6296 11.6534 25.582 11.1162 26.058C10.5791 26.5339 10.5315 27.3566 11.0075 27.8937L12.7412 29.8451Z" fill="#CB6CE6"/>
<path d="M18.0513 31.912C17.5142 31.4361 16.6915 31.4837 16.2156 32.0208L13.7135 34.8356L12.952 33.9721C12.4761 33.435 11.6534 33.3874 11.1162 33.8633C10.5791 34.3461 10.5315 35.1688 11.0075 35.7059C11.0075 35.7059 12.7344 37.6504 12.7412 37.6572C13.258 38.2352 14.1758 38.2352 14.6858 37.6572L18.1601 33.7546C18.6361 33.2174 18.5885 32.3947 18.0513 31.912Z" fill="#CB6CE6"/>
<path d="M40.614 15.9683H22.3924C21.6785 15.9683 21.0938 16.553 21.0938 17.2669C21.0938 17.9876 21.6785 18.5723 22.3924 18.5723H40.614C41.3347 18.5723 41.9194 17.9876 41.9194 17.2669C41.9194 16.553 41.3347 15.9683 40.614 15.9683Z" fill="#CB6CE6"/>
<path d="M40.614 23.7737H22.3924C21.6785 23.7737 21.0938 24.3584 21.0938 25.0791C21.0938 25.7998 21.6785 26.3777 22.3924 26.3777H40.614C41.3347 26.3777 41.9194 25.7998 41.9194 25.0791C41.9194 24.3584 41.3347 23.7737 40.614 23.7737Z" fill="#CB6CE6"/>
<path d="M40.614 31.5859H22.3924C21.6785 31.5859 21.0938 32.1707 21.0938 32.8846C21.0938 33.6053 21.6785 34.19 22.3924 34.19H40.614C41.3347 34.19 41.9194 33.6053 41.9194 32.8846C41.9194 32.1707 41.3347 31.5859 40.614 31.5859Z" fill="#CB6CE6"/>
<path d="M47.1275 32.8846C47.1275 33.2449 46.9983 33.5509 46.7467 33.8092C46.4884 34.0608 46.1824 34.19 45.8221 34.19C45.4617 34.19 45.1558 34.0608 44.9042 33.8092C44.6458 33.5509 44.5234 33.2449 44.5234 32.8846C44.5234 32.531 44.6458 32.2183 44.9042 31.9667C45.1558 31.7151 45.4617 31.5859 45.8221 31.5859C46.1824 31.5859 46.4884 31.7151 46.7467 31.9667C46.9983 32.2183 47.1275 32.531 47.1275 32.8846Z" fill="#CB6CE6"/>
</svg>
