<svg width="53" height="71" viewBox="0 0 53 71" fill="none" xmlns="http://www.w3.org/2000/svg">
<mask id="mask0_1655_26454" style="mask-type:luminance" maskUnits="userSpaceOnUse" x="0" y="0" width="53" height="71">
<path d="M0.253906 0H52.4739V70.7836H0.253906V0Z" fill="white"/>
</mask>
<g mask="url(#mask0_1655_26454)">
<path d="M16.215 4.89172C16.2089 4.71031 16.2755 4.54705 16.4024 4.41402C16.5294 4.28099 16.6866 4.21448 16.8741 4.21448L23.3986 4.11168C23.58 4.11168 23.7432 4.17215 23.8763 4.30518C24.0093 4.43216 24.0758 4.58938 24.0819 4.77683C24.0819 4.95823 24.0214 5.1215 23.8884 5.25453C23.7614 5.38756 23.6042 5.45407 23.4167 5.45407L16.8922 5.55686H16.8801C16.6987 5.55686 16.5415 5.49035 16.4145 5.36337C16.2815 5.23639 16.215 5.07917 16.215 4.89172ZM18.2528 35.8452C18.2528 35.8754 18.2467 35.9057 18.2407 35.9359C18.2044 36.3471 18.3132 36.861 18.676 37.4899C21.9232 43.053 28.1151 52.8548 30.0198 55.0014C30.1407 55.1405 30.2012 55.2977 30.1891 55.4851C30.177 55.6726 30.1044 55.8238 29.9654 55.9507C29.8263 56.0717 29.663 56.1321 29.4756 56.12C29.2881 56.108 29.137 56.0293 29.01 55.8903C28.2662 55.0498 26.948 53.1692 25.4121 50.8533C24.4507 52.0747 24.0093 53.399 24.1121 54.7958C24.3056 57.4503 26.4038 59.9416 28.3025 61.3928C29.9775 62.6687 31.7673 63.4246 33.5027 64.1502C36.0908 65.2386 38.7634 66.3572 41.0794 69.1932C41.1942 69.3383 41.2487 69.5016 41.2245 69.683C41.2063 69.8704 41.1277 70.0216 40.9826 70.1365C40.8435 70.2514 40.6803 70.3058 40.4928 70.2877C40.3114 70.2695 40.1602 70.1849 40.0393 70.0458C37.935 67.4699 35.5284 66.46 32.9827 65.3898C31.1747 64.6279 29.3002 63.8418 27.4862 62.4571C26.2889 61.544 25.2549 60.4677 24.4023 59.222C23.967 58.5932 23.6102 57.922 23.32 57.2145C21.8445 57.2387 20.1212 57.2447 18.0593 57.2327C16.8439 57.2266 15.7252 57.2387 14.6428 57.2568C13.8567 57.2629 13.1069 57.2689 12.3934 57.2689C7.85229 57.2689 4.72611 56.9122 2.69439 54.0158C0.971057 51.5668 0.946873 48.9183 0.916637 46.1187C0.910591 45.5684 0.904544 45.0061 0.886404 44.4437C0.717094 39.5519 0.626392 31.3585 0.53569 23.4372C0.517551 21.478 0.493363 19.5128 0.469176 17.596C0.469176 17.1304 0.457081 16.6588 0.444989 16.1569C0.360333 12.3958 0.257538 7.72161 2.40415 4.63775C4.6475 1.40273 8.20906 0.785955 11.6678 0.435241C15.9429 -0.0061736 19.1416 0.0240591 24.6986 0.253838C25.0191 0.271977 25.3335 0.284071 25.6419 0.296165C32.0636 0.556176 34.9963 0.671066 36.9373 4.11168C38.3946 6.69971 38.5397 10.6906 38.4792 14.6089C38.4309 17.7169 38.4671 22.1432 38.5095 26.8294C38.5518 31.9571 38.5941 37.2541 38.5216 40.7491C38.5155 41.0333 38.5095 41.3175 38.5034 41.5896C38.6727 41.5594 38.836 41.5413 39.0053 41.5413C40.3114 41.511 41.678 42.1278 42.845 43.2827C43.5343 43.966 44.0906 44.74 44.6288 45.4898C44.8284 45.774 45.04 46.0643 45.2456 46.3424C45.9107 47.2252 46.5638 48.1262 47.1866 49.003C48.7769 51.2161 50.2826 53.3083 51.637 54.433C51.7822 54.5479 51.8608 54.6991 51.8789 54.8865C51.897 55.0679 51.8487 55.2372 51.7277 55.3763C51.6068 55.5214 51.4556 55.6 51.2742 55.6182C51.0868 55.6363 50.9235 55.5819 50.7784 55.467C49.2909 54.2335 47.7429 52.0747 46.0982 49.783C45.4754 48.9183 44.8344 48.0234 44.1753 47.1527C43.9576 46.8624 43.7399 46.5601 43.5343 46.2759C43.0083 45.5382 42.5064 44.8368 41.9017 44.2381C41.3756 43.7181 40.3054 42.8474 39.0416 42.8836C38.7393 42.8897 38.4551 42.9502 38.1829 43.0771C38.1346 43.1013 38.0922 43.1255 38.0378 43.1437C37.4634 43.452 37.0824 43.9902 37.0401 44.4921C37.0038 44.8549 36.8103 45.0544 36.4536 45.1028C36.0968 45.1512 35.8549 45 35.734 44.6614C35.3712 43.6395 34.2344 42.926 33.152 43.0409C32.0697 43.1557 31.1082 44.093 30.9631 45.1693C30.9268 45.4535 30.7756 45.6349 30.5035 45.7256C30.2254 45.8103 29.9956 45.7438 29.8021 45.5321C29.4816 45.1754 28.3206 43.7 26.8573 41.8375C24.9344 39.3826 22.546 36.335 21.4031 35.0168C20.7561 34.273 19.5044 34.2549 18.8998 34.7447C18.537 35.0228 18.3193 35.3917 18.2528 35.8452ZM23.0902 52.3106C22.2739 52.3227 21.4576 52.3408 20.6473 52.3529C17.3034 52.4194 13.8507 52.4799 10.144 52.5101C10.0412 52.5101 9.92634 52.5101 9.8175 52.5101C8.81373 52.5101 7.54996 52.4436 6.55224 51.7301C4.91961 50.557 4.81681 48.3862 4.84704 46.4452C4.90751 42.4785 4.84705 37.8648 4.78658 32.979C4.69588 25.9889 4.60518 18.7691 4.841 12.2627C4.90147 10.6603 5.22194 9.51146 5.81453 8.73747C6.74573 7.53416 8.02765 7.50393 9.0556 7.47369C9.18259 7.46765 9.30352 7.46765 9.42446 7.4616C9.4305 7.4616 9.4426 7.4616 9.44865 7.4616C11.9036 7.44951 15.0117 7.40718 18.0169 7.36485C22.9934 7.29229 27.6918 7.22578 29.8021 7.31043C30.6003 7.34066 31.5859 7.37695 32.4325 7.87883C34.1014 8.88259 34.3251 10.9687 34.3191 12.8795C34.307 18.5514 34.3614 24.8763 34.4098 31.0017C34.44 34.5935 34.4702 38.3062 34.4884 41.8557C35.1716 42.0673 35.7582 42.4422 36.2419 42.9683C36.4959 42.6297 36.7982 42.3455 37.1489 42.1157C37.161 41.6682 37.1671 41.2026 37.1792 40.7189C37.2517 37.242 37.2094 31.9571 37.1671 26.8415C37.1248 22.1492 37.0885 17.7109 37.1369 14.5847C37.1973 10.8538 37.0703 7.0867 35.7642 4.77078C34.2586 2.10415 32.2692 1.90461 25.5875 1.63855C25.2791 1.62646 24.9647 1.60832 24.6382 1.59622C19.1537 1.37249 15.9973 1.34226 11.8069 1.77158C8.52954 2.10415 5.42754 2.63627 3.50466 5.40569C1.61202 8.13279 1.70272 12.3776 1.78737 16.1266C1.79947 16.6285 1.81156 17.1062 1.81156 17.5779C1.83575 19.5007 1.85993 21.4599 1.87808 23.4251C1.96878 31.3403 2.05948 39.5216 2.22879 44.3953C2.24693 44.9758 2.25298 45.5503 2.25902 46.1005C2.28321 48.8034 2.3074 51.1315 3.79491 53.2478C5.73592 56.0173 9.07979 55.9749 14.6247 55.9084C15.7131 55.8963 16.8378 55.8842 18.0653 55.8903C19.9398 55.9024 21.5362 55.8963 22.9148 55.8782C22.8483 55.5516 22.7999 55.2251 22.7758 54.8986C22.7032 54.0097 22.812 53.1511 23.0902 52.3106ZM17.5151 38.1672C17.1946 37.6411 16.995 37.0727 16.9164 36.462C16.469 36.4378 15.9792 36.4136 15.435 36.3773C13.2218 36.2443 10.7487 35.827 9.19468 33.7651C8.33604 32.6283 7.99137 31.165 8.2151 29.6351C8.46907 27.8755 9.30352 26.4666 10.7245 25.4024C13.0828 23.6791 15.6647 23.3223 18.8151 23.3163C19.0993 23.3163 19.3835 23.3102 19.6738 23.3102C22.0199 23.2921 24.4507 23.2739 26.7243 24.0479C29.2277 24.8945 30.9631 27.0955 31.0417 29.5142C31.1203 31.8483 30.0258 33.9465 28.1755 34.9926C26.8694 35.7303 25.4424 36.075 24.1665 36.2624C25.3214 37.7016 26.7122 39.4733 27.9155 41.0091C28.7197 42.0371 29.4998 43.0288 30.0561 43.7241C30.6426 42.6357 31.7613 41.8375 33.0069 41.7045C33.0553 41.6985 33.0976 41.6985 33.146 41.6924C33.1278 38.1974 33.0976 34.5512 33.0674 31.0138C33.019 24.8884 32.9646 18.5514 32.9767 12.8795C32.9767 11.3436 32.8376 9.68682 31.7431 9.03376C31.1929 8.70724 30.4249 8.677 29.7537 8.64677C27.6736 8.56816 22.7758 8.64072 18.0351 8.70724C15.0359 8.74957 11.9278 8.79189 9.46679 8.80399C9.34585 8.81003 9.21887 8.81003 9.09793 8.81608C8.19696 8.84027 7.41693 8.86446 6.87876 9.55983C6.46758 10.092 6.23176 11.0171 6.18338 12.3111C5.94756 18.7812 6.03826 25.9889 6.12896 32.9609C6.18943 37.8588 6.2499 42.4785 6.18943 46.4633C6.1592 48.1383 6.22571 49.8435 7.33227 50.6356C8.0337 51.1375 9.01328 51.1738 10.1319 51.1677C13.8326 51.1375 17.2853 51.077 20.6231 51.0105C21.6511 50.9924 22.679 50.9742 23.713 50.9561C23.9851 50.5026 24.2935 50.0793 24.6442 49.6802C22.1832 45.907 19.3654 41.3296 17.5151 38.1672ZM20.218 33.0818C21.0947 33.1241 21.8325 33.4748 22.4129 34.14C22.6306 34.3819 22.8846 34.6842 23.1688 35.0289C24.4991 34.8898 26.1196 34.6116 27.5164 33.8256C28.9253 33.0274 29.7658 31.3948 29.6993 29.5626C29.6388 27.6941 28.2662 25.9889 26.295 25.3177C24.233 24.6163 21.9232 24.6345 19.6858 24.6526C19.3956 24.6526 19.1054 24.6586 18.8151 24.6586C15.9308 24.6647 13.5846 24.9791 11.5166 26.4908C10.4766 27.2467 9.73889 28.4984 9.54539 29.8286C9.37004 31.0017 9.63005 32.1083 10.265 32.9548C11.4925 34.5814 13.6088 34.92 15.5136 35.041C16.088 35.0712 16.5899 35.1014 17.0555 35.1256C17.249 34.5512 17.5876 34.0735 18.0593 33.6986C18.6156 33.2511 19.4016 33.0274 20.218 33.0818ZM17.0011 29.7258C16.4569 30.7115 15.3201 31.2073 13.887 31.1166L13.76 32.6404C13.7419 32.8097 13.6753 32.9548 13.5423 33.0758C13.4153 33.1967 13.2642 33.2511 13.0888 33.2511C13.0707 33.2511 13.0525 33.2511 13.0344 33.2511C12.8469 33.239 12.6958 33.1604 12.5748 33.0153C12.4599 32.8762 12.4055 32.713 12.4237 32.5255L12.8288 27.5974C12.859 27.2588 13.0404 27.0532 13.373 26.9927C14.2982 26.8113 15.0722 26.8113 15.8099 26.9746C16.3903 27.1076 16.8015 27.4462 17.0374 27.9965C17.2913 28.5649 17.2792 29.224 17.0011 29.7258ZM15.8099 28.5467C15.7615 28.4076 15.6587 28.3169 15.5136 28.2867C15.054 28.1839 14.5884 28.1718 14.1228 28.2323L13.9958 29.7742C14.7456 29.8165 15.5136 29.6472 15.828 29.0788C15.9006 28.8974 15.8945 28.7221 15.8099 28.5467ZM19.6677 31.8543C19.3714 31.8543 19.0691 31.8604 18.7728 31.8543C18.676 32.1929 18.5793 32.5255 18.4886 32.8399C18.4402 33.0153 18.3314 33.1544 18.1681 33.2451C18.0109 33.3358 17.8355 33.3539 17.6602 33.3055C17.4788 33.2572 17.3457 33.1483 17.255 32.9851C17.1643 32.8218 17.1462 32.6525 17.1946 32.4711C17.382 31.8301 17.5937 31.1227 17.7932 30.4394C17.9988 29.7621 18.2104 29.0607 18.3858 28.4258C18.4584 28.1174 18.5853 27.8393 18.7667 27.5913C19.0933 27.1862 19.6193 27.0108 20.0728 27.156C20.6957 27.3555 20.8831 28.0025 20.9496 28.2444C21.1371 28.9035 21.3548 29.6291 21.5664 30.3305C21.778 31.038 21.9957 31.7697 22.1832 32.4348C22.2315 32.6162 22.2134 32.7855 22.1227 32.9488C22.032 33.112 21.899 33.2148 21.7176 33.2632C21.5422 33.3176 21.3729 33.2995 21.2096 33.2088C21.0464 33.1181 20.9436 32.979 20.8892 32.8037C20.8045 32.4953 20.7138 32.1748 20.6171 31.8483C20.3087 31.8422 19.9882 31.8483 19.6677 31.8543ZM20.2119 30.5059C20.0366 29.9073 19.8552 29.3026 19.6919 28.7402L19.6798 28.7886C19.5226 29.3389 19.3472 29.9314 19.1719 30.5119C19.3351 30.5119 19.4923 30.5119 19.6556 30.5119C19.837 30.5059 20.0305 30.5059 20.2119 30.5059ZM23.4107 29.4477C23.6707 29.7803 23.9428 30.1249 24.233 30.4938C24.2572 30.9533 24.2633 31.298 24.2633 31.6971C24.2693 31.9752 24.2693 32.2655 24.2754 32.6283C24.2814 32.8097 24.3479 32.9669 24.4809 33.0939C24.6079 33.2209 24.7651 33.2874 24.9465 33.2874H24.9647C25.1521 33.2814 25.3094 33.2088 25.4363 33.0758C25.5633 32.9427 25.6238 32.7795 25.6177 32.5981C25.6117 32.2474 25.6117 31.9632 25.6056 31.6911C25.6056 31.3343 25.5996 30.9957 25.5815 30.5845C25.8717 30.2035 26.1619 29.8589 26.4643 29.5021C26.7969 29.103 27.1476 28.6918 27.4922 28.2262C27.6011 28.0811 27.6434 27.9118 27.6192 27.7304C27.595 27.549 27.5043 27.3978 27.3592 27.289C27.208 27.1802 27.0448 27.1378 26.8573 27.162C26.6759 27.1862 26.5308 27.2769 26.4159 27.422C26.0954 27.8513 25.775 28.2323 25.4363 28.6374C25.2731 28.8309 25.1098 29.0244 24.9465 29.224C24.7833 29.0184 24.6261 28.8188 24.4688 28.6253C24.1544 28.2202 23.8279 27.803 23.459 27.3434C23.3441 27.1983 23.193 27.1136 23.0116 27.0955C22.8241 27.0774 22.6609 27.1257 22.5157 27.2406C22.3706 27.3555 22.292 27.5067 22.2678 27.6941C22.2497 27.8755 22.2981 28.0388 22.4129 28.1839C22.7758 28.6374 23.1023 29.0486 23.4107 29.4477Z" fill="#CB6CE6"/>
</g>
</svg>
