<svg width="54" height="92" viewBox="0 0 54 92" fill="none" xmlns="http://www.w3.org/2000/svg">
<mask id="mask0_1655_26462" style="mask-type:luminance" maskUnits="userSpaceOnUse" x="0" y="74" width="33" height="18">
<path d="M0.96875 74.4072H32.3304V91.0471H0.96875V74.4072Z" fill="white"/>
</mask>
<g mask="url(#mask0_1655_26462)">
<path d="M30.8809 82.9798L30.4343 82.826L5.39042 74.5757C4.37285 74.2389 3.26011 74.788 2.90872 75.8055L0.96875 81.3985L30.222 91.0471L32.1401 85.5054C32.3084 85.0003 32.2791 84.4585 32.0449 83.9827C31.8106 83.5142 31.386 83.1481 30.8809 82.9798Z" fill="#CB6CE6"/>
</g>
<mask id="mask1_1655_26462" style="mask-type:luminance" maskUnits="userSpaceOnUse" x="44" y="37" width="10" height="10">
<path d="M44.3867 37.8555H53.7571V46.7647H44.3867V37.8555Z" fill="white"/>
</mask>
<g mask="url(#mask1_1655_26462)">
<path d="M50.3755 37.8994C49.6361 37.8994 48.8967 38.1337 48.2744 38.6315L45.6903 40.6886C44.2334 41.8526 43.9992 43.9829 45.1559 45.4324C46.3198 46.8892 48.4428 47.1307 49.8996 45.9741L52.4838 43.9097C53.9406 42.753 54.1822 40.6227 53.0182 39.1659C52.352 38.3313 51.3711 37.8994 50.3755 37.8994Z" fill="#CB6CE6"/>
</g>
<mask id="mask2_1655_26462" style="mask-type:luminance" maskUnits="userSpaceOnUse" x="44" y="28" width="10" height="10">
<path d="M44.3867 28.3896H53.7571V37.2989H44.3867V28.3896Z" fill="white"/>
</mask>
<g mask="url(#mask2_1655_26462)">
<path d="M50.3755 28.4116C49.6361 28.4116 48.8967 28.6459 48.2744 29.1437L45.6903 31.2008C44.2334 32.3648 43.9992 34.4878 45.1559 35.9446C46.3198 37.4014 48.4428 37.643 49.8996 36.479L52.4838 34.4219C53.9406 33.2652 54.1822 31.1349 53.0182 29.6781C52.352 28.8435 51.3711 28.4116 50.3755 28.4116Z" fill="#CB6CE6"/>
</g>
<path d="M41.6284 34.2904V30.0737H40.1497V33.551H36.6797V35.0298H40.8891C41.299 35.0298 41.6284 34.6931 41.6284 34.2904Z" fill="#CB6CE6"/>
<path d="M15.8359 34.2904C15.8359 34.6931 16.1654 35.0298 16.5753 35.0298H20.7847V33.551H17.3147V30.0737H15.8359V34.2904Z" fill="#CB6CE6"/>
<path d="M41.6284 9.97083C41.6284 9.56087 41.299 9.23145 40.8891 9.23145H36.6797V10.7102H40.1497V14.1802H41.6284V9.97083Z" fill="#CB6CE6"/>
<path d="M15.8359 9.97083V14.1802H17.3147V10.7102H20.7847V9.23145H16.5753C16.1654 9.23145 15.8359 9.56087 15.8359 9.97083Z" fill="#CB6CE6"/>
<path d="M32.6077 13.5877H37.044V18.0166H32.6077V13.5877ZM31.1289 19.4954H38.5228V12.1089H31.1289V19.4954Z" fill="#CB6CE6"/>
<path d="M20.4031 13.5657H24.8687V18.0386H20.4031V13.5657ZM18.9609 19.4808H26.3109V12.1309H18.9609V19.4808Z" fill="#CB6CE6"/>
<path d="M24.8687 30.6885H20.4031V26.2156H24.8687V30.6885ZM26.3109 24.7734H18.9609V32.1234H26.3109V24.7734Z" fill="#CB6CE6"/>
<path d="M29.4539 12.0576H28.0117V15.0737H29.4539V12.0576Z" fill="#CB6CE6"/>
<path d="M28.0117 32.1968H29.4539V29.2686H28.0117V32.1968Z" fill="#CB6CE6"/>
<path d="M18.6641 22.8479H21.8266V21.4131H18.6641V22.8479Z" fill="#CB6CE6"/>
<path d="M28.0105 21.4132H23.457V22.8481H28.0105V27.6358H29.4526V22.8481H34.0134V21.4132H29.4526V16.7061H28.0105V21.4132Z" fill="#CB6CE6"/>
<path d="M38.8031 21.4131H35.6406V22.8479H38.8031V21.4131Z" fill="#CB6CE6"/>
<path d="M34.7853 24.7295H31.125V28.3898H32.9186V26.5231H34.7853V24.7295Z" fill="#CB6CE6"/>
<path d="M38.524 26.5231V24.7295H36.7305V26.5231H38.524Z" fill="#CB6CE6"/>
<path d="M34.8633 28.3897H36.6568V26.5962H34.8633V28.3897Z" fill="#CB6CE6"/>
<path d="M34.7823 30.2564V28.4629H32.9961V30.2564H34.7823Z" fill="#CB6CE6"/>
<path d="M31.125 32.1232H32.9186V30.3369H31.125V32.1232Z" fill="#CB6CE6"/>
<path d="M38.5236 28.4629H36.73V30.337H34.8633V32.1232H38.5236V28.4629Z" fill="#CB6CE6"/>
<path d="M27.8855 53.1114C27.8928 53.1114 27.9001 53.1114 27.9074 53.1114C28.1929 53.1554 28.4711 53.17 28.764 53.17C29.0348 53.17 29.2984 53.1554 29.5546 53.1188C32.761 52.7308 35.1842 49.9928 35.1842 46.7571C35.1842 46.6253 35.1768 46.5009 35.1695 46.3764C35.1476 45.9592 34.7815 45.6371 34.3642 45.6663C33.947 45.6883 33.6249 46.047 33.6541 46.4643C33.6615 46.5595 33.6615 46.6546 33.6615 46.7571C33.6615 49.2242 31.8167 51.3106 29.3642 51.6107C28.947 51.6693 28.5077 51.662 28.0905 51.6034C28.0831 51.6034 28.0831 51.6034 28.0685 51.6034C25.6746 51.2593 23.8664 49.1803 23.8664 46.7571C23.8664 44.0558 26.0626 41.8523 28.764 41.8523C29.2105 41.8523 29.6571 41.9182 30.089 42.0353C30.4916 42.1524 30.9162 41.9182 31.026 41.5155C31.1432 41.1129 30.9089 40.6883 30.5063 40.5785C29.9353 40.4174 29.3569 40.3369 28.764 40.3369C25.2281 40.3369 22.3438 43.2139 22.3438 46.7571C22.3438 49.9416 24.723 52.6722 27.8855 53.1114Z" fill="#CB6CE6"/>
<path d="M35.0564 40.4691C34.7196 40.2129 34.2438 40.2714 33.9875 40.6009L28.7094 47.3212L27.2306 45.4618C26.967 45.1323 26.4912 45.0811 26.1618 45.3373C25.8323 45.6009 25.7811 46.084 26.0373 46.4061L28.1237 49.0196C28.2701 49.1953 28.4897 49.3051 28.7167 49.3051H28.724C28.9509 49.3051 29.1706 49.1953 29.317 49.0123L35.1808 41.5379C35.437 41.2085 35.3858 40.7326 35.0564 40.4691Z" fill="#CB6CE6"/>
<path d="M18.9564 64.0854C18.6489 58.8292 16.7675 54.8687 13.2243 53.0239C11.7236 52.2406 10.8598 50.6593 11.0208 48.9975L11.87 40.3885C12.1994 37.9507 10.9037 34.4221 8.68553 33.2948C8.34146 33.1264 7.99739 33.0166 7.66064 32.9726C7.60208 32.9653 7.52887 32.958 7.45566 32.958C6.7236 32.958 6.10135 33.5071 5.99886 34.2391L3.30486 54.7369C3.29754 54.8248 2.25801 60.6008 3.78802 65.1981C4.30779 66.7721 4.89344 67.6798 5.40588 68.4778C6.2624 69.8101 6.9359 70.8789 6.78948 73.8585L30.157 81.5671C30.7573 78.1557 32.7924 76.406 34.93 74.5539C36.2038 73.4558 37.5289 72.3065 38.6636 70.7325C39.8788 69.0268 40.6914 67.1088 41.1599 65.4763H18.9271L18.9564 64.0854Z" fill="#CB6CE6"/>
<mask id="mask3_1655_26462" style="mask-type:luminance" maskUnits="userSpaceOnUse" x="6" y="0" width="44" height="34">
<path d="M6.87891 0H49.9829V33.1406H6.87891V0Z" fill="white"/>
</mask>
<g mask="url(#mask3_1655_26462)">
<path d="M10.2537 33.0381V4.56076C10.2537 2.88433 11.6226 1.52269 13.299 1.52269H44.2434C45.9198 1.52269 47.2815 2.88433 47.2815 4.56076V19.0264L47.6768 18.7116L48.8042 17.8331V4.56076C48.8042 2.04978 46.7544 0 44.2434 0H13.299C10.7807 0 8.73828 2.04978 8.73828 4.56076V32.123C8.89201 32.1816 9.03843 32.2255 9.19216 32.306C9.57283 32.5037 9.93155 32.7526 10.2537 33.0381Z" fill="#CB6CE6"/>
</g>
<mask id="mask4_1655_26462" style="mask-type:luminance" maskUnits="userSpaceOnUse" x="44" y="18" width="10" height="10">
<path d="M44.3867 18.7412H53.7571V27.8335H44.3867V18.7412Z" fill="white"/>
</mask>
<g mask="url(#mask4_1655_26462)">
<path d="M45.6903 21.7135C44.2334 22.8775 43.9992 25.0004 45.1559 26.4573C46.3198 27.9141 48.4428 28.1556 49.8996 26.9917L52.4838 24.9346C53.9406 23.7779 54.1822 21.6476 53.0182 20.1908C52.352 19.3562 51.3711 18.917 50.3755 18.917C49.6361 18.917 48.8967 19.1586 48.2744 19.6564L45.6903 21.7135Z" fill="#CB6CE6"/>
</g>
<path d="M47.2822 59.7444C47.2822 61.4135 45.9205 62.7825 44.2441 62.7825H20.2397C20.2251 62.7825 20.2178 62.7825 20.2031 62.7898L20.291 64.2979H44.2441C46.7551 64.2979 48.8049 62.2554 48.8049 59.7444V57.3506H47.2822V59.7444Z" fill="#CB6CE6"/>
<mask id="mask5_1655_26462" style="mask-type:luminance" maskUnits="userSpaceOnUse" x="44" y="47" width="10" height="10">
<path d="M44.3867 47.3213H53.7571V56.2232H44.3867V47.3213Z" fill="white"/>
</mask>
<g mask="url(#mask5_1655_26462)">
<path d="M50.7561 47.4092C50.6317 47.3945 50.4999 47.3872 50.3755 47.3872C49.6141 47.3872 48.8821 47.6434 48.2744 48.1193L45.6903 50.1764C44.2334 51.3404 43.9992 53.4707 45.1559 54.9275C46.3198 56.377 48.4428 56.6185 49.8996 55.4619L52.4838 53.3975C53.9406 52.2408 54.1822 50.1105 53.0182 48.6537C52.4545 47.9509 51.6566 47.5043 50.7561 47.4092Z" fill="#CB6CE6"/>
</g>
</svg>
