<svg width="54" height="56" viewBox="0 0 54 56" fill="none" xmlns="http://www.w3.org/2000/svg">
<mask id="mask0_1655_26517" style="mask-type:luminance" maskUnits="userSpaceOnUse" x="0" y="0" width="54" height="56">
<path d="M0.949219 0H53.7692V55.222H0.949219V0Z" fill="white"/>
</mask>
<g mask="url(#mask0_1655_26517)">
<path d="M24.1502 21.7122L25.1511 22.1063C25.6015 22.2815 26.1144 22.0625 26.2896 21.6059C26.4647 21.1555 26.2458 20.6426 25.7891 20.4674L24.5193 19.967C24.3442 19.8982 24.1565 19.8919 23.9751 19.9357L15.8807 22.1063C15.4553 21.4871 14.7672 21.0679 13.9791 20.9929L10.8014 8.73244C10.7013 8.34461 10.351 8.06938 9.95064 8.06938H6.7354C6.24748 8.06938 5.8534 8.46346 5.8534 8.95138C5.8534 9.43929 6.24748 9.83338 6.7354 9.83338H9.26881L12.2714 21.437C11.5833 21.9062 11.1329 22.6943 11.1329 23.5951C11.1329 25.0338 12.3026 26.2036 13.7414 26.2036C15.105 26.2036 16.231 25.1464 16.3373 23.8078L24.1502 21.7122ZM13.7414 24.4396C13.2722 24.4396 12.8906 24.058 12.8906 23.5951C12.8906 23.126 13.2722 22.7444 13.7414 22.7444C14.2043 22.7444 14.5858 23.126 14.5858 23.5951C14.5858 24.058 14.2043 24.4396 13.7414 24.4396ZM17.6259 11.6912L14.0854 12.6358C13.6163 12.7609 13.341 13.2425 13.4661 13.7117L15.1175 19.8919C15.1801 20.1171 15.3302 20.3111 15.5304 20.4236C15.668 20.505 15.8181 20.5425 15.9683 20.5425C16.0496 20.5425 16.1246 20.5362 16.1997 20.5112L23.2745 18.6159C23.7436 18.4908 24.0189 18.0091 23.8938 17.5399L22.2424 11.3659C22.1798 11.1407 22.0297 10.9468 21.8295 10.828C21.6293 10.7091 21.3854 10.6778 21.1602 10.7404L17.6259 11.6912ZM21.9671 17.1459L16.5938 18.5846L15.3928 14.112L17.2318 13.6179L17.4445 14.4123C17.5509 14.8064 17.9012 15.0691 18.2952 15.0691C18.3703 15.0691 18.4454 15.0566 18.5204 15.0378C18.9896 14.9127 19.2711 14.431 19.146 13.9619L18.9333 13.1612L20.7661 12.667L21.9671 17.1459ZM12.8343 11.3659C12.8969 11.5911 13.0408 11.785 13.2472 11.9039C13.3786 11.979 13.5349 12.0165 13.6851 12.0165C13.7601 12.0165 13.8415 12.0102 13.9165 11.9915L19.6464 10.4527C20.1155 10.3275 20.3908 9.84589 20.2657 9.37674L18.927 4.37248C18.8645 4.14728 18.7206 3.95337 18.5142 3.83452C18.314 3.72192 18.0763 3.69064 17.8511 3.74694L14.9799 4.51635L12.115 5.28575C11.8898 5.34205 11.7021 5.49218 11.5833 5.69235C11.4644 5.89878 11.4332 6.13648 11.4957 6.36167L12.8343 11.3659ZM14.5858 6.44299L14.7172 6.9309C14.8235 7.32499 15.1801 7.58146 15.5679 7.58146C15.643 7.58146 15.7181 7.5752 15.7994 7.55018C16.2685 7.42507 16.5438 6.94342 16.4186 6.47427L16.2873 5.99261L17.4508 5.67984L18.339 8.98265L14.3106 10.0586L13.4223 6.75576L14.5858 6.44299ZM53.1937 7.30622L47.3137 1.42622C46.9447 1.05715 46.4755 0.85698 45.9501 0.85698H20.8975C19.3399 0.306511 17.6572 0 15.9057 0C7.66119 0 0.949219 6.71197 0.949219 14.9627C0.949219 21.8186 5.59067 27.6173 11.9023 29.375V52.6636C11.9023 53.727 12.7655 54.5903 13.8289 54.5903H51.8301C52.8935 54.5903 53.763 53.727 53.763 52.6636V8.66989C53.763 8.15069 53.569 7.67529 53.1937 7.30622ZM47.2637 3.86579L50.7542 7.35627H47.2637V3.86579ZM2.71322 14.9627C2.71322 7.68154 8.63076 1.764 15.9057 1.764C23.1869 1.764 29.1045 7.68154 29.1045 14.9627C29.1045 22.2377 23.1869 28.1552 15.9057 28.1552C8.63076 28.1552 2.71322 22.2377 2.71322 14.9627ZM23.0743 28.0864V29.1936H20.5096C21.4041 28.9059 22.2611 28.5306 23.0743 28.0864ZM51.8301 52.8325H13.8289C13.7414 52.8325 13.6663 52.7512 13.6663 52.6636V29.7503C14.3982 29.8629 15.1426 29.9192 15.9057 29.9192C16.7502 29.9192 17.5696 29.8504 18.3766 29.7128V30.0756C18.3766 30.5635 18.7707 30.9576 19.2523 30.9576H23.9563C24.438 30.9576 24.8321 30.5635 24.8321 30.0756V26.9542C26.7274 25.5468 28.2725 23.6952 29.3296 21.5621H46.4067C46.8946 21.5621 47.2887 21.168 47.2887 20.6864C47.2887 20.1985 46.8946 19.8044 46.4067 19.8044H30.0615C30.2617 19.2101 30.4306 18.6033 30.5619 17.9841H40.633C41.1209 17.9841 41.515 17.59 41.515 17.1021C41.515 16.6142 41.1209 16.2201 40.633 16.2201H30.8122C30.8497 15.8072 30.8685 15.3881 30.8685 14.9627C30.8685 14.2059 30.8122 13.4615 30.6996 12.7296H46.4067C46.8946 12.7296 47.2887 12.3355 47.2887 11.8538C47.2887 11.3659 46.8946 10.9718 46.4067 10.9718H30.3242C30.1553 10.3463 29.9427 9.73955 29.6925 9.15155H40.633C41.1209 9.15155 41.515 8.75746 41.515 8.26955C41.515 7.78789 41.1209 7.3938 40.633 7.3938H28.8042C27.6845 5.49218 26.1645 3.86579 24.3504 2.62098H45.5059V7.71282C45.5059 8.48848 46.1315 9.11401 46.9071 9.11401H51.999V52.6636C51.999 52.7512 51.9239 52.8325 51.8301 52.8325ZM47.2887 38.3452C47.2887 38.8331 46.8946 39.2272 46.4067 39.2272H28.4476C27.966 39.2272 27.5719 38.8331 27.5719 38.3452C27.5719 37.8573 27.966 37.4632 28.4476 37.4632H46.4067C46.8946 37.4632 47.2887 37.8573 47.2887 38.3452ZM27.5719 34.7671C27.5719 34.2792 27.966 33.8851 28.4476 33.8851H40.633C41.1209 33.8851 41.515 34.2792 41.515 34.7671C41.515 35.255 41.1209 35.6491 40.633 35.6491H28.4476C27.966 35.6491 27.5719 35.255 27.5719 34.7671ZM23.9563 33.3284H19.2523C18.7707 33.3284 18.3766 33.7225 18.3766 34.2041V38.9081C18.3766 39.3898 18.7707 39.7839 19.2523 39.7839H23.9563C24.438 39.7839 24.8321 39.3898 24.8321 38.9081V34.2041C24.8321 33.7225 24.438 33.3284 23.9563 33.3284ZM23.0743 38.0261H20.1343V35.0861H23.0743V38.0261ZM47.2887 29.5126C47.2887 30.0006 46.8946 30.3946 46.4067 30.3946H28.4476C27.966 30.3946 27.5719 30.0006 27.5719 29.5126C27.5719 29.031 27.966 28.6369 28.4476 28.6369H46.4067C46.8946 28.6369 47.2887 29.031 47.2887 29.5126ZM27.5719 25.9346C27.5719 25.4467 27.966 25.0526 28.4476 25.0526H40.633C41.1209 25.0526 41.515 25.4467 41.515 25.9346C41.515 26.4225 41.1209 26.8166 40.633 26.8166H28.4476C27.966 26.8166 27.5719 26.4225 27.5719 25.9346ZM27.5719 43.5996C27.5719 43.1117 27.966 42.7176 28.4476 42.7176H40.633C41.1209 42.7176 41.515 43.1117 41.515 43.5996C41.515 44.0813 41.1209 44.4754 40.633 44.4754H28.4476C27.966 44.4754 27.5719 44.0813 27.5719 43.5996ZM47.2887 47.1777C47.2887 47.6656 46.8946 48.0597 46.4067 48.0597H28.4476C27.966 48.0597 27.5719 47.6656 27.5719 47.1777C27.5719 46.6898 27.966 46.2957 28.4476 46.2957H46.4067C46.8946 46.2957 47.2887 46.6898 47.2887 47.1777ZM23.9563 42.1547H19.2523C18.7707 42.1547 18.3766 42.5487 18.3766 43.0367V47.7344C18.3766 48.2223 18.7707 48.6164 19.2523 48.6164H23.9563C24.438 48.6164 24.8321 48.2223 24.8321 47.7344V43.0367C24.8321 42.5487 24.438 42.1547 23.9563 42.1547ZM23.0743 46.8587H20.1343V43.9187H23.0743V46.8587Z" fill="#CB6CE6"/>
</g>
</svg>
