<svg width="61" height="61" viewBox="0 0 61 61" fill="none" xmlns="http://www.w3.org/2000/svg">
<mask id="mask0_1655_26645" style="mask-type:luminance" maskUnits="userSpaceOnUse" x="0" y="0" width="61" height="61">
<path d="M0.253906 0.490723H60.4639V60.2475H0.253906V0.490723Z" fill="white"/>
</mask>
<g mask="url(#mask0_1655_26645)">
<path d="M45.0331 59.0273L38.0115 56.6914C38.0673 56.4055 38.0952 56.1126 38.0952 55.8128V55.1783L44.5102 57.3119C44.559 57.3329 44.6148 57.3398 44.6636 57.3398C44.8588 57.3398 45.0471 57.2143 45.1098 57.0191C45.1935 56.7681 45.061 56.5031 44.81 56.4194L38.0952 54.1812V52.187L45.4097 54.6205C45.4585 54.6414 45.5073 54.6483 45.5561 54.6483C45.7583 54.6483 45.9396 54.5228 46.0093 54.3206C46.093 54.0766 45.9535 53.8046 45.7095 53.7279L38.0952 51.1898V49.1956L46.3092 51.929C46.358 51.9499 46.4068 51.9568 46.4556 51.9568C46.6578 51.9568 46.8391 51.8313 46.9088 51.6291C46.9855 51.3851 46.853 51.1131 46.609 51.0295L38.0952 48.1985V43.213L48.1012 46.546C48.15 46.5599 48.1988 46.5669 48.2546 46.5669C48.4498 46.5669 48.6311 46.4414 48.7008 46.2461C48.7845 45.9951 48.652 45.7302 48.401 45.6465L38.0952 42.2159V40.2147L49.0006 43.8475C49.0495 43.8684 49.0983 43.8754 49.1471 43.8754C49.3493 43.8754 49.5306 43.7499 49.6003 43.5546C49.677 43.3036 49.5445 43.0387 49.3005 42.955L38.0952 39.2245V37.2234L49.8932 41.156C49.9489 41.1769 49.9978 41.1839 50.0466 41.1839C50.2488 41.1839 50.4301 41.0584 50.4928 40.8562C50.5765 40.6121 50.444 40.3402 50.193 40.2635L38.0952 36.2262V31.2407L51.6921 35.773C51.741 35.787 51.7898 35.7939 51.8455 35.7939C52.0408 35.7939 52.2221 35.6684 52.2918 35.4732C52.3755 35.2222 52.243 34.9572 51.992 34.8735L38.0952 30.2436V28.2494L52.5916 33.0815C52.6404 33.0955 52.6893 33.1024 52.7381 33.1024C52.9333 33.1024 53.1216 32.9769 53.1843 32.7817C53.268 32.5307 53.1355 32.2657 52.8915 32.182L38.0952 27.2523V22.2667L54.3836 27.6916C54.4324 27.7125 54.4882 27.7194 54.5301 27.7194C54.7323 27.7194 54.9205 27.5939 54.9833 27.3917C55.067 27.1477 54.9275 26.8757 54.6835 26.799L38.0952 21.2696V19.2754L55.2831 25.0001C55.3319 25.021 55.3807 25.028 55.4296 25.028C55.6318 25.028 55.8131 24.9024 55.8828 24.7002C55.9665 24.4562 55.827 24.1842 55.583 24.1006L38.0952 18.2783V16.2841L56.1826 22.3086C56.2245 22.3225 56.2802 22.3295 56.329 22.3295C56.5243 22.3295 56.7125 22.204 56.7753 22.0087C56.859 21.7577 56.7265 21.4928 56.4755 21.4091L38.0952 15.287V11.7378L38.674 11.3543L39.1969 12.8604C39.2457 12.9999 39.3573 13.1045 39.4967 13.1533C39.6362 13.1951 39.7896 13.1742 39.9081 13.0975L41.233 12.205L41.7559 13.7111C41.8047 13.8506 41.9163 13.9552 42.0558 14.004C42.1952 14.0528 42.3486 14.0319 42.4671 13.9482L43.792 13.0557L44.3149 14.5618C44.3637 14.7013 44.4753 14.8128 44.6148 14.8547C44.7542 14.9035 44.9076 14.8826 45.0262 14.7989L46.351 13.9064L46.8739 15.4125C46.9228 15.5519 47.0343 15.6635 47.1738 15.7053C47.3132 15.7541 47.4666 15.7332 47.5852 15.6496L48.91 14.764L49.433 16.2701C49.4818 16.4096 49.5933 16.5142 49.7328 16.563C49.8722 16.6048 50.0187 16.5839 50.1442 16.5072L51.469 15.6147L51.992 17.1208C52.0408 17.2603 52.1523 17.3649 52.2848 17.4137C52.4243 17.4625 52.5777 17.4416 52.7032 17.3579L54.028 16.4654L54.551 17.9715C54.5998 18.111 54.7044 18.2225 54.8438 18.2644C54.9833 18.3132 55.1367 18.2922 55.2622 18.2086L56.5801 17.3161L57.11 18.8222C57.1518 18.9616 57.2634 19.0732 57.4029 19.115C57.5423 19.1638 57.6957 19.1429 57.8142 19.0592L58.5046 18.599L45.0331 59.0273ZM33.8697 59.1528H4.47941C2.67346 59.1528 1.19523 57.6536 1.19523 55.8128V4.77201C1.19523 2.9312 2.67346 1.43902 4.47941 1.43902H33.8697C35.6826 1.43902 37.1539 2.9312 37.1539 4.77201V55.8128C37.1539 57.6536 35.6826 59.1528 33.8697 59.1528ZM38.5973 5.67847L39.7966 4.62558L40.5078 6.05501C40.5705 6.18052 40.6961 6.27813 40.8355 6.30603C40.9819 6.33392 41.1284 6.29208 41.2399 6.19446L42.4393 5.14854L43.1505 6.57099C43.2132 6.70347 43.3387 6.79412 43.4852 6.82898C43.6246 6.8499 43.778 6.81504 43.8896 6.71742L45.0819 5.66453L45.7932 7.09395C45.8629 7.22643 45.9814 7.31708 46.1279 7.34497C46.2743 7.37286 46.4207 7.33103 46.5323 7.23341L47.7316 6.18749L48.4428 7.60994C48.5056 7.74242 48.6311 7.84004 48.7775 7.86793C48.917 7.89582 49.0634 7.85398 49.175 7.75636L50.3743 6.70347L51.0855 8.13289C51.1552 8.26538 51.2738 8.35603 51.4202 8.38392C51.5666 8.41181 51.7131 8.36997 51.8246 8.27932L53.0239 7.22643L53.7352 8.65585C53.7979 8.78137 53.9234 8.87898 54.0629 8.90687C54.2093 8.93477 54.3557 8.89293 54.4673 8.79531L55.0879 8.25143L53.6515 15.5798L52.6823 16.2283L52.1593 14.7222C52.1105 14.5827 51.9989 14.4781 51.8595 14.4293C51.72 14.3875 51.5666 14.4014 51.4481 14.4851L50.1233 15.3776L49.6003 13.8715C49.5515 13.732 49.4399 13.6274 49.3005 13.5786C49.161 13.5298 49.0076 13.5507 48.8891 13.6344L47.5643 14.5269L47.0413 13.0208C46.9925 12.8814 46.8809 12.7698 46.7484 12.728C46.609 12.6792 46.4556 12.7001 46.3301 12.7837L45.0052 13.6693L44.4823 12.1701C44.4335 12.0307 44.3289 11.9191 44.1825 11.8703C44.05 11.8285 43.8966 11.8494 43.7711 11.9331L42.4532 12.8186L41.9233 11.3125C41.8745 11.173 41.7699 11.0684 41.6304 11.0196C41.491 10.9778 41.3376 10.9917 41.212 11.0754L39.8942 11.9679L39.3712 10.4618C39.3224 10.3223 39.2109 10.2178 39.0714 10.1689C38.9319 10.1201 38.7785 10.1411 38.66 10.2247L38.0952 10.6013V5.74123C38.1301 5.75517 38.158 5.77609 38.1928 5.78307C38.3323 5.81096 38.4857 5.77609 38.5973 5.67847ZM59.8294 17.2742C59.7806 17.1348 59.669 17.0302 59.5296 16.9883C59.3901 16.9395 59.2437 16.9604 59.1182 17.0441L57.8003 17.9366L57.2704 16.4305C57.2285 16.2911 57.117 16.1795 56.9775 16.1377C56.8381 16.0888 56.6847 16.1098 56.5661 16.1934L55.2413 17.086L54.7183 15.5798C54.6974 15.531 54.6695 15.4892 54.6416 15.4543L56.2872 7.08C56.3081 6.98238 56.2872 6.87082 56.2384 6.7732C56.1756 6.64072 56.0501 6.55007 55.9107 6.52218C55.7642 6.49429 55.6178 6.53613 55.5063 6.62677L54.3069 7.67966L53.5957 6.25722C53.526 6.12473 53.4074 6.02711 53.261 5.99922C53.1216 5.97133 52.9682 6.01317 52.8566 6.11079L51.6642 7.16368L50.953 5.73426C50.8833 5.60177 50.7578 5.51113 50.6183 5.48324C50.4719 5.45535 50.3255 5.49718 50.2139 5.58783L49.0146 6.64072L48.3034 5.2113C48.2406 5.08579 48.1151 4.98817 47.9687 4.96028C47.8292 4.93239 47.6758 4.97422 47.5712 5.07184L46.3719 6.11776L45.6537 4.69531C45.591 4.56283 45.4724 4.47218 45.326 4.43732C45.1796 4.40943 45.0331 4.45127 44.9216 4.54888L43.7222 5.60177L43.011 4.17235C42.9483 4.03987 42.8228 3.94923 42.6763 3.92133C42.5369 3.89344 42.3904 3.93528 42.2789 4.0329L41.0796 5.07882L40.3683 3.65637C40.2986 3.52388 40.1801 3.42627 40.0336 3.39837C39.8942 3.37746 39.7408 3.41232 39.6292 3.50994L38.4299 4.56283L37.9139 3.51691C37.377 1.76674 35.7663 0.490723 33.8697 0.490723H4.47941C2.1505 0.490723 0.253906 2.41521 0.253906 4.77201V55.8128C0.253906 58.1766 2.1505 60.1011 4.47941 60.1011H33.8697C35.578 60.1011 37.0493 59.0691 37.7117 57.5909L45.1796 60.0732C45.2284 60.0941 45.2772 60.1011 45.333 60.1011C45.4027 60.1011 45.4724 60.0871 45.5421 60.0523C45.6537 59.9965 45.7374 59.8919 45.7792 59.7803L59.8364 17.595C59.8712 17.4904 59.8642 17.3718 59.8294 17.2742Z" fill="#CB6CE6"/>
</g>
<path d="M33.3697 18.9406H4.98346V7.58892H33.3697V18.9406ZM33.8438 6.64062H4.50931C4.25131 6.64062 4.03516 6.85678 4.03516 7.11477V19.4148C4.03516 19.6728 4.25131 19.8889 4.50931 19.8889H33.8438C34.1018 19.8889 34.318 19.6728 34.318 19.4148V7.11477C34.318 6.85678 34.1018 6.64062 33.8438 6.64062Z" fill="#CB6CE6"/>
<path d="M11.6076 35.8009C11.6076 35.8985 11.5309 35.9752 11.4403 35.9752H5.15777C5.06015 35.9752 4.98346 35.8985 4.98346 35.8009V32.8305C4.98346 32.7398 5.06015 32.6631 5.15777 32.6631H11.4403C11.5309 32.6631 11.6076 32.7398 11.6076 32.8305V35.8009ZM11.4403 31.7148H5.15777C4.5372 31.7148 4.03516 32.2169 4.03516 32.8305V35.8009C4.03516 36.4215 4.5372 36.9165 5.15777 36.9165H11.4403C12.0539 36.9165 12.5559 36.4215 12.5559 35.8009V32.8305C12.5559 32.2169 12.0539 31.7148 11.4403 31.7148Z" fill="#CB6CE6"/>
<path d="M11.6076 27.7613C11.6076 27.852 11.5309 27.9287 11.4403 27.9287H5.15777C5.06015 27.9287 4.98346 27.852 4.98346 27.7613V24.7909C4.98346 24.6933 5.06015 24.6166 5.15777 24.6166H11.4403C11.5309 24.6166 11.6076 24.6933 11.6076 24.7909V27.7613ZM11.4403 23.6753H5.15777C4.5372 23.6753 4.03516 24.1704 4.03516 24.7909V27.7613C4.03516 28.3749 4.5372 28.877 5.15777 28.877H11.4403C12.0539 28.877 12.5559 28.3749 12.5559 27.7613V24.7909C12.5559 24.1704 12.0539 23.6753 11.4403 23.6753Z" fill="#CB6CE6"/>
<path d="M11.6076 51.8873C11.6076 51.9849 11.5309 52.0547 11.4403 52.0547H5.15777C5.06015 52.0547 4.98346 51.9849 4.98346 51.8873V48.9169C4.98346 48.8193 5.06015 48.7496 5.15777 48.7496H11.4403C11.5309 48.7496 11.6076 48.8193 11.6076 48.9169V51.8873ZM11.4403 47.8013H5.15777C4.5372 47.8013 4.03516 48.3033 4.03516 48.9169V51.8873C4.03516 52.5009 4.5372 53.003 5.15777 53.003H11.4403C12.0539 53.003 12.5559 52.5009 12.5559 51.8873V48.9169C12.5559 48.3033 12.0539 47.8013 11.4403 47.8013Z" fill="#CB6CE6"/>
<path d="M22.4904 51.8873C22.4904 51.9849 22.4137 52.0547 22.3161 52.0547H16.0336C15.943 52.0547 15.8663 51.9849 15.8663 51.8873V48.9169C15.8663 48.8193 15.943 48.7496 16.0336 48.7496H22.3161C22.4137 48.7496 22.4904 48.8193 22.4904 48.9169V51.8873ZM22.3161 47.8013H16.0336C15.42 47.8013 14.918 48.3033 14.918 48.9169V51.8873C14.918 52.5009 15.42 53.003 16.0336 53.003H22.3161C22.9297 53.003 23.4317 52.5009 23.4317 51.8873V48.9169C23.4317 48.3033 22.9297 47.8013 22.3161 47.8013Z" fill="#CB6CE6"/>
<path d="M11.6076 43.8474C11.6076 43.9381 11.5309 44.0148 11.4403 44.0148H5.15777C5.06015 44.0148 4.98346 43.9381 4.98346 43.8474V40.877C4.98346 40.7794 5.06015 40.7027 5.15777 40.7027H11.4403C11.5309 40.7027 11.6076 40.7794 11.6076 40.877V43.8474ZM11.4403 39.7544H5.15777C4.5372 39.7544 4.03516 40.2564 4.03516 40.877V43.8474C4.03516 44.461 4.5372 44.9631 5.15777 44.9631H11.4403C12.0539 44.9631 12.5559 44.461 12.5559 43.8474V40.877C12.5559 40.2564 12.0539 39.7544 11.4403 39.7544Z" fill="#CB6CE6"/>
<path d="M22.4904 43.8474C22.4904 43.9381 22.4137 44.0148 22.3161 44.0148H16.0336C15.943 44.0148 15.8663 43.9381 15.8663 43.8474V40.877C15.8663 40.7794 15.943 40.7027 16.0336 40.7027H22.3161C22.4137 40.7027 22.4904 40.7794 22.4904 40.877V43.8474ZM22.3161 39.7544H16.0336C15.42 39.7544 14.918 40.2564 14.918 40.877V43.8474C14.918 44.461 15.42 44.9631 16.0336 44.9631H22.3161C22.9297 44.9631 23.4317 44.461 23.4317 43.8474V40.877C23.4317 40.2564 22.9297 39.7544 22.3161 39.7544Z" fill="#CB6CE6"/>
<path d="M22.4904 35.8009C22.4904 35.8985 22.4137 35.9752 22.3161 35.9752H16.0336C15.943 35.9752 15.8663 35.8985 15.8663 35.8009V32.8305C15.8663 32.7398 15.943 32.6631 16.0336 32.6631H22.3161C22.4137 32.6631 22.4904 32.7398 22.4904 32.8305V35.8009ZM22.3161 31.7148H16.0336C15.42 31.7148 14.918 32.2169 14.918 32.8305V35.8009C14.918 36.4215 15.42 36.9165 16.0336 36.9165H22.3161C22.9297 36.9165 23.4317 36.4215 23.4317 35.8009V32.8305C23.4317 32.2169 22.9297 31.7148 22.3161 31.7148Z" fill="#CB6CE6"/>
<path d="M33.3693 35.8009C33.3693 35.8985 33.2926 35.9752 33.202 35.9752H26.9195C26.8219 35.9752 26.7452 35.8985 26.7452 35.8009V32.8305C26.7452 32.7398 26.8219 32.6631 26.9195 32.6631H33.202C33.2926 32.6631 33.3693 32.7398 33.3693 32.8305V35.8009ZM33.202 31.7148H26.9195C26.2989 31.7148 25.7969 32.2169 25.7969 32.8305V35.8009C25.7969 36.4215 26.2989 36.9165 26.9195 36.9165H33.202C33.8156 36.9165 34.3176 36.4215 34.3176 35.8009V32.8305C34.3176 32.2169 33.8156 31.7148 33.202 31.7148Z" fill="#CB6CE6"/>
<path d="M33.3693 27.7613C33.3693 27.852 33.2926 27.9287 33.202 27.9287H26.9195C26.8219 27.9287 26.7452 27.852 26.7452 27.7613V24.7909C26.7452 24.6933 26.8219 24.6166 26.9195 24.6166H33.202C33.2926 24.6166 33.3693 24.6933 33.3693 24.7909V27.7613ZM33.202 23.6753H26.9195C26.2989 23.6753 25.7969 24.1704 25.7969 24.7909V27.7613C25.7969 28.3749 26.2989 28.877 26.9195 28.877H33.202C33.8156 28.877 34.3176 28.3749 34.3176 27.7613V24.7909C34.3176 24.1704 33.8156 23.6753 33.202 23.6753Z" fill="#CB6CE6"/>
<path d="M22.4904 27.7613C22.4904 27.852 22.4137 27.9287 22.3161 27.9287H16.0336C15.943 27.9287 15.8663 27.852 15.8663 27.7613V24.7909C15.8663 24.6933 15.943 24.6166 16.0336 24.6166H22.3161C22.4137 24.6166 22.4904 24.6933 22.4904 24.7909V27.7613ZM22.3161 23.6753H16.0336C15.42 23.6753 14.918 24.1704 14.918 24.7909V27.7613C14.918 28.3749 15.42 28.877 16.0336 28.877H22.3161C22.9297 28.877 23.4317 28.3749 23.4317 27.7613V24.7909C23.4317 24.1704 22.9297 23.6753 22.3161 23.6753Z" fill="#CB6CE6"/>
<path d="M33.3693 51.887C33.3693 51.9847 33.2926 52.0544 33.202 52.0544H26.9195C26.8219 52.0544 26.7452 51.9847 26.7452 51.887V40.877C26.7452 40.7794 26.8219 40.7027 26.9195 40.7027H33.202C33.2926 40.7027 33.3693 40.7794 33.3693 40.877V51.887ZM33.202 39.7544H26.9195C26.2989 39.7544 25.7969 40.2564 25.7969 40.877V51.887C25.7969 52.5006 26.2989 53.0027 26.9195 53.0027H33.202C33.8156 53.0027 34.3176 52.5006 34.3176 51.887V40.877C34.3176 40.2564 33.8156 39.7544 33.202 39.7544Z" fill="#CB6CE6"/>
<path d="M29.1111 16.9255V17.5252C29.1111 17.7832 29.3272 17.9923 29.5852 17.9923C29.8502 17.9923 30.0594 17.7832 30.0594 17.5252V16.9255C30.8752 16.7163 31.4818 15.9702 31.4818 15.0847V14.8964C31.4818 14.8337 31.5306 13.3066 29.7595 12.5954C28.6578 12.1561 28.6439 11.5844 28.6439 11.5425V11.3333C28.6439 10.8034 29.0623 10.3711 29.5852 10.3711C30.1082 10.3711 30.5335 10.8034 30.5335 11.3333V11.5634H31.4818V11.3333C31.4818 10.4478 30.8752 9.70867 30.0594 9.49252V9.00442C30.0594 8.74643 29.8502 8.53027 29.5852 8.53027C29.3272 8.53027 29.1111 8.74643 29.1111 9.00442V9.49252C28.3022 9.70867 27.6956 10.4478 27.6956 11.3333V11.5146C27.6956 11.5634 27.6328 12.7628 29.4109 13.474C30.5405 13.9272 30.5335 14.8197 30.5335 14.8755V15.0847C30.5335 15.6146 30.1082 16.0469 29.5852 16.0469C29.0623 16.0469 28.6439 15.6146 28.6439 15.0847V14.8546H27.6956V15.0847C27.6956 15.9702 28.3022 16.7163 29.1111 16.9255Z" fill="#CB6CE6"/>
<path d="M20.5991 16.5767H24.3854C24.6434 16.5767 24.8595 16.3606 24.8595 16.1026C24.8595 15.8446 24.6434 15.6284 24.3854 15.6284H20.5991C20.3412 15.6284 20.125 15.8446 20.125 16.1026C20.125 16.3606 20.3412 16.5767 20.5991 16.5767Z" fill="#CB6CE6"/>
<path d="M20.5991 11.8423H22.0216V13.2648C22.0216 13.5228 22.2308 13.7389 22.4957 13.7389C22.7537 13.7389 22.9629 13.5228 22.9629 13.2648V11.8423H24.3854C24.6434 11.8423 24.8595 11.6331 24.8595 11.3751C24.8595 11.1102 24.6434 10.901 24.3854 10.901H22.9629V9.47854C22.9629 9.22055 22.7537 9.00439 22.4957 9.00439C22.2308 9.00439 22.0216 9.22055 22.0216 9.47854V10.901H20.5991C20.3412 10.901 20.125 11.1102 20.125 11.3751C20.125 11.6331 20.3412 11.8423 20.5991 11.8423Z" fill="#CB6CE6"/>
</svg>
