<svg width="40" height="40" viewBox="0 0 40 40" fill="none" xmlns="http://www.w3.org/2000/svg">
<g clip-path="url(#clip0_75_318)">
<path d="M38.5227 27.2039H26.2634V24.2961H34.7007C35.4163 24.2961 35.9984 23.714 35.9984 22.9984V1.61992C35.9984 0.904375 35.4163 0.322266 34.7007 0.322266H12.3618C12.0382 0.322266 11.7759 0.584609 11.7759 0.908203C11.7759 1.2318 12.0382 1.49414 12.3618 1.49414H34.7007C34.7701 1.49414 34.8265 1.55055 34.8265 1.61992V22.9984C34.8265 23.0678 34.77 23.1242 34.7007 23.1242H5.21141C5.14203 23.1242 5.08563 23.0678 5.08563 22.9984V1.61992C5.08563 1.55055 5.14203 1.49414 5.21141 1.49414H10.018C10.3416 1.49414 10.604 1.2318 10.604 0.908203C10.604 0.584609 10.3416 0.322266 10.018 0.322266H5.21141C4.49586 0.322266 3.91375 0.904375 3.91375 1.61992V22.9984C3.91375 23.714 4.49586 24.2961 5.21141 24.2961H13.6487V27.2039H1.47727C0.662656 27.2039 0 27.8666 0 28.6812V38.2005C0 39.0151 0.662656 39.6777 1.47727 39.6777H8.94969C9.27328 39.6777 9.53563 39.4154 9.53563 39.0918C9.53563 38.7682 9.27328 38.5059 8.94969 38.5059H1.47727C1.30891 38.5059 1.17188 38.3689 1.17188 38.2005V28.6812C1.17188 28.5128 1.30891 28.3758 1.47727 28.3758H38.5227C38.6911 28.3758 38.8281 28.5128 38.8281 28.6812V38.2005C38.8281 38.3689 38.6911 38.5059 38.5227 38.5059H11.2934C10.9698 38.5059 10.7075 38.7682 10.7075 39.0918C10.7075 39.4154 10.9698 39.6777 11.2934 39.6777H38.5227C39.3373 39.6777 40 39.0151 40 38.2005V28.6812C40 27.8666 39.3373 27.2039 38.5227 27.2039ZM14.8206 27.2039V24.2961H25.0915V27.2039H14.8206Z" fill="#CB6CE6"/>
<path d="M28.5449 33.4409C28.5449 33.1173 28.2826 32.855 27.959 32.855H6.88477C6.56117 32.855 6.29883 33.1173 6.29883 33.4409C6.29883 33.7645 6.56117 34.0269 6.88477 34.0269H27.959C28.2826 34.0269 28.5449 33.7645 28.5449 33.4409Z" fill="#CB6CE6"/>
<path d="M36.5908 33.4409C36.5908 32.1744 35.5604 31.144 34.2939 31.144C33.0275 31.144 31.9971 32.1744 31.9971 33.4409C31.9971 34.7074 33.0275 35.7378 34.2939 35.7378C35.5604 35.7378 36.5908 34.7074 36.5908 33.4409ZM33.1689 33.4409C33.1689 32.8206 33.6736 32.3159 34.2939 32.3159C34.9143 32.3159 35.4189 32.8206 35.4189 33.4409C35.4189 34.0612 34.9143 34.5659 34.2939 34.5659C33.6736 34.5659 33.1689 34.0612 33.1689 33.4409Z" fill="#CB6CE6"/>
<path d="M6.60059 3.59497V21.0235C6.60059 21.3471 6.86293 21.6094 7.18652 21.6094H32.7258C33.0494 21.6094 33.3118 21.3471 33.3118 21.0235V3.59497C33.3118 3.27138 33.0494 3.00903 32.7258 3.00903H7.18652C6.86293 3.00903 6.60059 3.27138 6.60059 3.59497ZM7.77246 4.18091H32.1399V20.4375H7.77246V4.18091Z" fill="#CB6CE6"/>
<path d="M21.0605 5.6897H10.5701C9.82374 5.6897 9.21655 6.29688 9.21655 7.04321V17.5336C9.21655 18.2799 9.82374 18.887 10.5701 18.887H21.0605C21.8068 18.887 22.414 18.2799 22.414 17.5336V7.04321C22.414 6.29688 21.8068 5.6897 21.0605 5.6897ZM14.3493 14.6475V12.9524H17.2813V14.6475H14.3493ZM17.2813 15.8194V17.7152H14.3493V15.8194H17.2813ZM17.2813 10.0856V11.7806H14.3493V10.0856H17.2813ZM14.3493 8.91368V6.86157H17.2813V8.91368H14.3493ZM21.2421 11.7806H18.4532V10.0855H21.2421V11.7806ZM13.1774 11.7806H10.3884V10.0855H13.1774V11.7806ZM10.3885 12.9524H13.1775V14.6475H10.3885V12.9524ZM18.4532 12.9524H21.2421V14.6475H18.4532V12.9524ZM21.2421 7.04321V8.91368H18.4532V6.86157H21.0605C21.1606 6.86157 21.2421 6.94306 21.2421 7.04321ZM10.5701 6.86157H13.1774V8.91368H10.3884V7.04321C10.3885 6.94306 10.47 6.86157 10.5701 6.86157ZM10.3885 17.5336V15.8194H13.1775V17.7152H10.5701C10.47 17.7152 10.3885 17.6338 10.3885 17.5336ZM21.0605 17.7152H18.4532V15.8194H21.2421V17.5336C21.2421 17.6338 21.1606 17.7152 21.0605 17.7152Z" fill="#CB6CE6"/>
<path d="M29.6478 13.8926H25.2936C24.6267 13.8926 24.0842 14.4351 24.0842 15.102V17.5995C24.0842 18.2664 24.6267 18.8089 25.2936 18.8089H29.6478C30.3147 18.8089 30.8572 18.2664 30.8572 17.5995V15.102C30.8572 14.4351 30.3147 13.8926 29.6478 13.8926ZM29.6853 17.5995C29.6853 17.6202 29.6685 17.637 29.6478 17.637H25.2936C25.2729 17.637 25.2561 17.6202 25.2561 17.5995V15.102C25.2561 15.0812 25.2729 15.0645 25.2936 15.0645H29.6478C29.6685 15.0645 29.6853 15.0812 29.6853 15.102V17.5995Z" fill="#CB6CE6"/>
<path d="M25.8062 12.0762H29.3876C29.7112 12.0762 29.9736 11.8138 29.9736 11.4902C29.9736 11.1666 29.7112 10.9043 29.3876 10.9043H25.8062C25.4826 10.9043 25.2202 11.1666 25.2202 11.4902C25.2202 11.8138 25.4826 12.0762 25.8062 12.0762Z" fill="#CB6CE6"/>
<path d="M25.8062 9.57715H29.3876C29.7112 9.57715 29.9736 9.3148 29.9736 8.99121C29.9736 8.66762 29.7112 8.40527 29.3876 8.40527H25.8062C25.4826 8.40527 25.2202 8.66762 25.2202 8.99121C25.2202 9.3148 25.4826 9.57715 25.8062 9.57715Z" fill="#CB6CE6"/>
</g>
<defs>
<clipPath id="clip0_75_318">
<rect width="40" height="40" fill="white"/>
</clipPath>
</defs>
</svg>
