<svg width="40" height="40" viewBox="0 0 40 40" fill="none" xmlns="http://www.w3.org/2000/svg">
<g clip-path="url(#clip0_75_332)">
<path d="M13.5285 39.8048C13.7889 40.0649 14.2107 40.0649 14.4712 39.8048L17.8045 36.4715L16.8618 35.5288L13.9998 38.3908L1.60935 26.0003L9.1379 18.4717L8.1952 17.5291L0.19531 25.5289C-0.0647778 25.7894 -0.0647778 26.2112 0.19531 26.4716L13.5285 39.8048Z" fill="#CB6CE6"/>
<path d="M39.9957 13.9271L38.6624 1.92726C38.6279 1.61704 38.3831 1.37193 38.0729 1.33775L26.073 0.00443396C25.8722 -0.0167246 25.672 0.053587 25.5284 0.195838L20.8618 4.86244L21.8045 5.80514L26.2446 1.36509L37.3997 2.60368L38.6383 13.7556L36.0224 16.3717L34.7555 7.85101C35.665 7.48969 36.1819 6.52616 35.9798 5.56881C35.778 4.61147 34.9157 3.93895 33.9378 3.97574C32.9603 4.01284 32.1514 4.74851 32.0222 5.71855C31.8929 6.68826 32.4811 7.61013 33.415 7.90179L34.4463 14.835L25.1378 5.5291C24.8774 5.26869 24.4555 5.26869 24.1951 5.5291L20.8618 8.86239L21.8045 9.80509L24.6665 6.94314L33.057 15.3337L31.5283 16.8623L32.471 17.805L34.471 15.805C34.5088 15.762 34.5407 15.7142 34.5657 15.6631L34.8457 17.5449L33.5283 18.8623L34.471 19.805L35.0895 19.1861L35.513 22.0276C35.6136 22.8479 36.1556 23.5471 36.9248 23.8492C37.6943 24.1512 38.567 24.0077 39.1991 23.4752C39.831 22.9426 40.1207 22.107 39.9537 21.2974L38.7268 15.5488L39.8043 14.4717C39.9475 14.3285 40.0178 14.1283 39.9957 13.9271ZM33.9997 5.33379C34.3678 5.33379 34.6663 5.63229 34.6663 6.00045C34.6663 6.36861 34.3678 6.66711 33.9997 6.66711C33.6315 6.66711 33.333 6.36861 33.333 6.00045C33.333 5.63229 33.6315 5.33379 33.9997 5.33379ZM38.6484 21.5683C38.7122 21.8987 38.5904 22.2379 38.3303 22.4521C38.0706 22.6662 37.7141 22.7209 37.402 22.5946C37.0898 22.4683 36.8717 22.1815 36.8336 21.8469L36.2662 18.013L37.607 16.6722L38.6484 21.5683Z" fill="#CB6CE6"/>
<path d="M4.86255 25.9289L9.1955 21.5959L10.1382 22.5386L5.80524 26.8716L4.86255 25.9289Z" fill="#CB6CE6"/>
<path d="M6.92798 27.9953L11.2609 23.6624L12.2039 24.605L7.87067 28.938L6.92798 27.9953Z" fill="#CB6CE6"/>
<path d="M8.99512 30.0617L11.5283 27.5286L12.4713 28.4713L9.93781 31.0044L8.99512 30.0617Z" fill="#CB6CE6"/>
<path d="M11.0618 32.1287L12.8622 30.3286L13.8049 31.2713L12.0048 33.0717L11.0618 32.1287Z" fill="#CB6CE6"/>
<path d="M13.1284 34.1955L14.4617 32.8625L15.4044 33.8052L14.0714 35.1382L13.1284 34.1955Z" fill="#CB6CE6"/>
<path d="M23.9998 36.6669C26.2709 36.6659 28.4818 35.9355 30.3063 34.5829L35.1142 39.3908C35.927 40.2033 37.2444 40.2033 38.0569 39.3908C38.8694 38.5783 38.8694 37.2606 38.0569 36.4481L33.1377 31.5289L33.0524 31.6142C35.6048 27.4857 35.0442 22.1541 31.6898 18.6463C28.335 15.1382 23.0336 14.3407 18.7954 16.7062C14.5569 19.0717 12.4527 24.0027 13.6777 28.6995C14.9022 33.3961 19.146 36.6718 23.9998 36.6669ZM37.1142 37.3908C37.4062 37.6828 37.4062 38.1561 37.1142 38.4481C36.8222 38.7401 36.3489 38.7401 36.0569 38.4481L31.333 33.7249C31.696 33.3815 32.0342 33.0133 32.3457 32.623L37.1142 37.3908ZM23.9998 16.6672C29.1543 16.6672 33.333 20.8458 33.333 26.0004C33.333 31.1549 29.1543 35.3336 23.9998 35.3336C18.8452 35.3336 14.6666 31.1549 14.6666 26.0004C14.6721 20.8481 18.8475 16.6727 23.9998 16.6672Z" fill="#CB6CE6"/>
<path d="M23.9996 34C28.4179 34 31.9995 30.4184 31.9995 26.0001C31.9995 21.5819 28.4179 18.0002 23.9996 18.0002C19.5814 18.0002 15.9998 21.5819 15.9998 26.0001C16.0046 30.4164 19.5834 33.9951 23.9996 34ZM23.9996 19.3336C27.6816 19.3336 30.6662 22.3182 30.6662 26.0001C30.6662 29.6821 27.6816 32.6667 23.9996 32.6667C20.3177 32.6667 17.3331 29.6821 17.3331 26.0001C17.337 22.3198 20.3194 19.3375 23.9996 19.3336Z" fill="#CB6CE6"/>
<path d="M24.6663 28.6669H23.333C22.9648 28.6669 22.6663 28.3684 22.6663 28.0002H21.333C21.333 29.1047 22.2285 30.0002 23.333 30.0002V31.3335H24.6663V30.0002C25.7708 30.0002 26.6663 29.1047 26.6663 28.0002V27.3336C26.6663 26.2291 25.7708 25.3336 24.6663 25.3336H23.333C22.9648 25.3336 22.6663 25.0351 22.6663 24.6669V24.0003C22.6663 23.6321 22.9648 23.3336 23.333 23.3336H24.6663C25.0345 23.3336 25.333 23.6321 25.333 24.0003H26.6663C26.6663 22.8958 25.7708 22.0003 24.6663 22.0003V20.667H23.333V22.0003C22.2285 22.0003 21.333 22.8958 21.333 24.0003V24.6669C21.333 25.7714 22.2285 26.6669 23.333 26.6669H24.6663C25.0345 26.6669 25.333 26.9654 25.333 27.3336V28.0002C25.333 28.3684 25.0345 28.6669 24.6663 28.6669Z" fill="#CB6CE6"/>
<path d="M3.33329 16.0003H7.78668L12.2791 19.2089C12.3921 19.2899 12.5275 19.3336 12.6665 19.3336C12.7948 19.3332 12.9204 19.2961 13.0285 19.2268C13.2593 19.0777 13.3748 18.8026 13.3198 18.5334L12.8133 16.0003H16.6664C18.5066 15.998 19.9975 14.5068 19.9997 12.667V3.33378C19.9975 1.49363 18.5066 0.0027669 16.6664 0.000488281H3.33329C1.49314 0.0027669 0.00227862 1.49363 0 3.33378V12.667C0.00227862 14.5068 1.49314 15.998 3.33329 16.0003ZM1.33332 3.33378C1.33332 2.2293 2.22881 1.3338 3.33329 1.3338H16.6664C17.7709 1.3338 18.6664 2.2293 18.6664 3.33378V12.667C18.6664 13.7715 17.7709 14.667 16.6664 14.667H11.9998C11.7996 14.667 11.6099 14.7568 11.4832 14.9117C11.3566 15.067 11.3065 15.2708 11.3465 15.4668L11.6799 17.1474L8.38531 14.7942C8.27333 14.7125 8.13856 14.6679 7.99989 14.667H3.33329C2.22881 14.667 1.33332 13.7715 1.33332 12.667V3.33378Z" fill="#CB6CE6"/>
<path d="M3.33341 13.3339H17.3332V12.0005H4.00006V10.2226L5.33338 8.44524L6.80016 10.4006C6.93394 10.5683 7.13674 10.6662 7.35126 10.6672C7.56772 10.6614 7.76792 10.5507 7.88803 10.3703L10.0592 7.11323L12.8206 10.428C12.9479 10.5793 13.1354 10.6669 13.3333 10.6672C13.3541 10.6685 13.3749 10.6685 13.3961 10.6672C13.6148 10.6464 13.8092 10.5194 13.9159 10.3271L17.2492 4.32714L16.0839 3.68066L13.2226 8.83001L10.5127 5.57647C10.3795 5.41176 10.1754 5.32126 9.96385 5.33396C9.75422 5.34535 9.56184 5.45505 9.4453 5.62985L7.30145 8.84726L5.86658 6.93387C5.73539 6.77437 5.53976 6.68192 5.33338 6.68192C5.127 6.68192 4.93137 6.77437 4.80018 6.93387L4.00006 8.00059V3.33398H2.66675V12.6672C2.66675 13.0354 2.96525 13.3339 3.33341 13.3339Z" fill="#CB6CE6"/>
</g>
<defs>
<clipPath id="clip0_75_332">
<rect width="40" height="40" fill="white"/>
</clipPath>
</defs>
</svg>
