<svg width="32" height="36" viewBox="0 0 32 36" fill="none" xmlns="http://www.w3.org/2000/svg">
<path fill-rule="evenodd" clip-rule="evenodd" d="M9.98285 33.5719C9.99245 33.5587 10.0013 33.5455 10.0092 33.532C10.0118 33.5276 10.0145 33.5246 10.0166 33.5202C10.0267 33.5027 10.0359 33.4839 10.0442 33.4646C10.0517 33.4462 10.0578 33.4264 10.0639 33.4067C10.0653 33.4019 10.0661 33.3971 10.0674 33.3923C10.0718 33.3765 10.0745 33.3611 10.077 33.3454C10.0779 33.3401 10.0783 33.3344 10.0792 33.3287C10.0818 33.3086 10.0831 33.2875 10.0831 33.2661C10.0831 33.2451 10.0818 33.2245 10.0792 33.2035C10.0783 33.1982 10.0779 33.1925 10.077 33.1872C10.0744 33.1715 10.0717 33.1561 10.0674 33.1403C10.0661 33.1355 10.0653 33.1307 10.0639 33.1259C10.0577 33.1057 10.0517 33.0864 10.0442 33.068C10.0359 33.0487 10.0267 33.0303 10.0166 33.0123C10.0145 33.0079 10.0118 33.0049 10.0092 33.0005C10.0013 32.9869 9.99253 32.9738 9.98285 32.9607C9.97933 32.9563 9.97581 32.9515 9.97237 32.9475C9.96053 32.9322 9.94829 32.9182 9.93517 32.9042C9.93469 32.9033 9.93389 32.902 9.93253 32.9015C9.91893 32.8875 9.90277 32.8739 9.88693 32.8617C9.88301 32.8582 9.87861 32.8555 9.87381 32.8521C9.86109 32.842 9.84709 32.8328 9.83261 32.8245C9.82997 32.8223 9.82781 32.821 9.82517 32.8197L7.65349 31.5654C7.40637 31.4221 7.09053 31.5067 6.94813 31.7538C6.80533 32.0013 6.88989 32.3163 7.13741 32.4595L7.64037 32.75H5.11901V28.3015C5.11901 28.0163 4.88765 27.7849 4.60245 27.7849C4.31677 27.7849 4.08637 28.0163 4.08637 28.3015V33.2661C4.08637 33.5513 4.31677 33.7827 4.60245 33.7827H7.64029L7.13733 34.0731C6.88981 34.2164 6.80525 34.5314 6.94805 34.7785C7.04357 34.9446 7.21701 35.0366 7.39581 35.0366C7.48341 35.0366 7.57237 35.0147 7.65341 34.9674L9.82509 33.7139C9.82773 33.7117 9.82989 33.7104 9.83253 33.7083C9.84701 33.6999 9.86101 33.6903 9.87373 33.6807C9.87853 33.6771 9.88293 33.6745 9.88685 33.6711C9.90261 33.6588 9.91885 33.6456 9.93245 33.6312C9.93381 33.6307 9.93381 33.6295 9.93509 33.6286C9.94821 33.6146 9.96053 33.6005 9.97229 33.5852C9.97589 33.5806 9.97933 33.5767 9.98285 33.5719ZM20.1922 6.9197C20.1825 6.93282 20.1738 6.94602 20.1655 6.95954C20.1633 6.96394 20.1607 6.96698 20.1585 6.97138C20.1485 6.9893 20.1393 7.0077 20.1313 7.02698V7.02786C20.1234 7.04626 20.1165 7.06466 20.1112 7.08482C20.1098 7.08962 20.1089 7.0945 20.1077 7.10018C20.1037 7.11506 20.1006 7.13082 20.0981 7.14666C20.0977 7.15234 20.0959 7.15714 20.0959 7.1629C20.0933 7.18346 20.0915 7.2041 20.0915 7.22554C20.0915 7.24658 20.0933 7.26714 20.0959 7.28818C20.0959 7.29346 20.0977 7.29914 20.0981 7.30442C20.1007 7.32066 20.1037 7.33642 20.1077 7.3513C20.1089 7.3561 20.1098 7.36098 20.1112 7.36666C20.1165 7.38594 20.1234 7.40522 20.1313 7.42362C20.1393 7.4429 20.1484 7.4613 20.1585 7.4793C20.1607 7.4837 20.1633 7.48762 20.1655 7.49114C20.1738 7.50514 20.1826 7.51786 20.1922 7.53098C20.1957 7.53578 20.1984 7.54018 20.2018 7.54498C20.2145 7.55986 20.2268 7.57434 20.24 7.58746C20.2404 7.58874 20.2413 7.58962 20.2417 7.5901C20.2562 7.60458 20.272 7.6177 20.2882 7.63042C20.2921 7.63346 20.2961 7.63698 20.3009 7.63962C20.3141 7.6501 20.3281 7.6589 20.3425 7.6681C20.3452 7.66938 20.3473 7.67162 20.3496 7.6729L22.5217 8.92674C22.6033 8.97362 22.6917 8.99594 22.7793 8.99594C22.9581 8.99594 23.1316 8.90346 23.2275 8.73746C23.3699 8.49122 23.2853 8.17538 23.0382 8.03298L22.534 7.74162H25.0562V12.1907C25.0562 12.4755 25.2876 12.7067 25.5723 12.7067C25.8584 12.7067 26.0889 12.4754 26.0889 12.1907V7.22554C26.0889 6.94034 25.8585 6.70898 25.5723 6.70898H22.534L23.0382 6.4185C23.2853 6.2761 23.3699 5.96026 23.2275 5.71314C23.0847 5.4665 22.7688 5.38194 22.5217 5.52434L20.3496 6.77866C20.3474 6.77994 20.3452 6.78218 20.3425 6.78346C20.3281 6.79178 20.3141 6.80146 20.3009 6.81106C20.2961 6.8141 20.2921 6.81722 20.2882 6.82066C20.272 6.83378 20.2562 6.8465 20.2417 6.86138C20.2413 6.86178 20.2404 6.86266 20.24 6.86314C20.2269 6.87674 20.2145 6.89162 20.2018 6.9065C20.1983 6.91098 20.1957 6.91578 20.1922 6.9197ZM30.5211 25.0032V24.2295H28.3788V26.8727C28.3788 27.8448 27.776 28.6067 27.0061 28.6067H25.8408C25.0714 28.6067 24.469 27.8448 24.469 26.8727V24.2295H22.3271V32.4235H30.5211V25.0032ZM13.1001 32.4235H21.2945V24.2295H19.1522V26.8727C19.1522 27.8448 18.5493 28.6067 17.7805 28.6067H16.6142C15.8453 28.6067 15.2425 27.8448 15.2425 26.8727V24.2295H13.1001V32.4235ZM12.0678 25.4589H2.43509C1.90805 25.4589 1.47869 25.0304 1.47869 24.5029V4.49482C1.47869 3.9673 1.90805 3.53882 2.43509 3.53882H5.80501V3.74082C5.80501 4.4409 6.37501 5.0109 7.07509 5.0109H11.9741C12.6741 5.0109 13.2441 4.4409 13.2441 3.74082V3.53882H16.6141C17.1416 3.53882 17.5705 3.9673 17.5705 4.49482V23.1969H12.5839C12.2991 23.1969 12.0678 23.4283 12.0678 23.7135V25.4589ZM6.83765 3.74082C6.83765 3.86962 6.94629 3.97826 7.07509 3.97826H11.9741C12.1029 3.97826 12.2115 3.86962 12.2115 3.74082V2.2337C12.2115 2.1045 12.1029 1.99578 11.9741 1.99578H7.07509C6.94629 1.99578 6.83765 2.10442 6.83765 2.2337V3.74082ZM16.275 26.8727V24.2295H18.1199V26.8727C18.1199 27.3077 17.8995 27.5741 17.7804 27.5741H16.6141C16.4945 27.5741 16.275 27.3077 16.275 26.8727ZM25.5017 26.8727V24.2295H27.3461V26.8727C27.3461 27.3077 27.1262 27.5741 27.0061 27.5741H25.8408C25.7212 27.5741 25.5017 27.3077 25.5017 26.8727ZM22.3271 15.0038V23.1969H30.5211V15.0038H28.3788V17.6911C28.3788 18.6734 27.776 19.4427 27.0061 19.4427H25.8408C25.0714 19.4427 24.469 18.6734 24.469 17.6911V15.0038H22.3271ZM25.5017 17.6911V15.0038H27.3461V17.6911C27.3461 18.1301 27.1231 18.4101 27.0061 18.4101H25.8408C25.7247 18.4101 25.5017 18.1301 25.5017 17.6911ZM31.5533 14.4877V32.94C31.5533 33.2248 31.3225 33.4561 31.0373 33.4561H12.584C12.2992 33.4561 12.0679 33.2248 12.0679 32.94V26.4915H2.43509C1.33853 26.4915 0.446533 25.5995 0.446533 24.5029V4.49482C0.446533 3.39818 1.33853 2.50618 2.43509 2.50618H5.80501V2.2337C5.80501 1.53362 6.37501 0.963623 7.07509 0.963623H11.9741C12.6741 0.963623 13.2441 1.53362 13.2441 2.2337V2.50618H16.6141C17.7107 2.50618 18.6031 3.39818 18.6031 4.49482V23.1969H21.2944V14.4877C21.2944 14.202 21.5257 13.9711 21.8105 13.9711H31.0371C31.3224 13.9711 31.5533 14.202 31.5533 14.4877ZM15.7366 19.4808C15.7366 19.1952 15.5053 18.9643 15.2205 18.9643H9.46941C9.18421 18.9643 8.95285 19.1951 8.95285 19.4808C8.95285 19.7656 9.18413 19.9969 9.46941 19.9969H15.2205C15.5053 19.9969 15.7366 19.7656 15.7366 19.4808ZM9.46941 15.0147H15.2205C15.5053 15.0147 15.7366 14.7843 15.7366 14.4987C15.7366 14.2135 15.5053 13.9821 15.2205 13.9821H9.46941C9.18421 13.9821 8.95285 14.2134 8.95285 14.4987C8.95285 14.7843 9.18421 15.0147 9.46941 15.0147ZM6.60853 17.7315C6.36141 17.5891 6.04597 17.6732 5.90357 17.9203L4.73605 19.9418L4.19365 19.399C3.99213 19.1975 3.66525 19.1975 3.46333 19.399C3.26221 19.6005 3.26181 19.9274 3.46333 20.1293L4.48197 21.1471C4.57925 21.2452 4.71149 21.2987 4.84693 21.2987C4.86973 21.2987 4.89205 21.2974 4.91437 21.2947C5.07341 21.2733 5.21405 21.1795 5.29461 21.0407L6.79773 18.4365C6.94021 18.1893 6.85565 17.8743 6.60853 17.7315ZM4.48197 16.1656C4.57925 16.2633 4.71149 16.3172 4.84693 16.3172C4.86973 16.3172 4.89205 16.3159 4.91437 16.3119C5.07341 16.2918 5.21405 16.198 5.29461 16.0587L6.79773 13.4551C6.94013 13.2079 6.85557 12.8925 6.60845 12.7501C6.36133 12.6068 6.04589 12.6914 5.90349 12.9385L4.73597 14.9595L4.19357 14.4171C3.99205 14.2156 3.66517 14.2156 3.46325 14.4171C3.26213 14.6191 3.26173 14.9459 3.46325 15.1475L4.48197 16.1656ZM9.46941 10.033H15.2205C15.5053 10.033 15.7366 9.8025 15.7366 9.5169C15.7366 9.2317 15.5053 9.00082 15.2205 9.00082H9.46941C9.18421 9.00082 8.95285 9.2317 8.95285 9.5169C8.95285 9.8025 9.18421 10.033 9.46941 10.033ZM3.46333 10.1657L4.48197 11.1839C4.57925 11.2815 4.71149 11.3355 4.84693 11.3355C4.86973 11.3355 4.89205 11.3342 4.91437 11.3307C5.07341 11.3101 5.21405 11.2163 5.29461 11.0775L6.79773 8.4733C6.94013 8.22618 6.85557 7.91034 6.60845 7.76794C6.36133 7.62554 6.04589 7.7101 5.90349 7.95722L4.73597 9.97826L4.19357 9.43586C3.99205 9.23386 3.66517 9.23386 3.46325 9.43586C3.26181 9.6373 3.26221 9.96418 3.46333 10.1657Z" fill="#CB6CE6"/>
</svg>
