<svg width="40" height="40" viewBox="0 0 40 40" fill="none" xmlns="http://www.w3.org/2000/svg">
<g clip-path="url(#clip0_75_355)">
<path d="M39.4141 23.7961C39.7377 23.7961 40 23.5338 40 23.2102V2.16406C40 0.970781 39.0292 0 37.8359 0H3.11133C1.39578 0 0 1.39578 0 3.11133V36.8887C0 38.6042 1.39578 40 3.11133 40H37.8359C39.0292 40 40 39.0292 40 37.8359V25.9445C40 25.6209 39.7377 25.3586 39.4141 25.3586C39.0904 25.3586 38.8281 25.6209 38.8281 25.9445V37.8359C38.8281 38.383 38.383 38.8281 37.8359 38.8281H22.5881C23.0138 38.2958 23.2692 37.6216 23.2692 36.8887V16.3242H35.3102C36.5034 16.3242 37.4742 15.3534 37.4742 14.1602V9.89922C37.4742 9.57562 37.212 9.31328 36.8883 9.31328C36.5646 9.31328 36.3023 9.57562 36.3023 9.89922V14.1602C36.3023 14.7073 35.8573 15.1523 35.3102 15.1523H23.2692V13.7989H34.3633C34.687 13.7989 34.9492 13.5366 34.9492 13.213C34.9492 12.8894 34.687 12.627 34.3633 12.627H23.2692V3.69766H35.3102C35.8573 3.69766 36.3023 4.14273 36.3023 4.68984V7.16484C36.3023 7.48844 36.5646 7.75078 36.8883 7.75078C37.212 7.75078 37.4742 7.48844 37.4742 7.16484V4.68984C37.4742 3.49656 36.5034 2.52578 35.3102 2.52578H23.2131C23.1165 2.0207 22.8975 1.55883 22.588 1.17188H37.8359C38.383 1.17188 38.8281 1.61695 38.8281 2.16406V23.2102C38.8281 23.5338 39.0904 23.7961 39.4141 23.7961ZM22.0973 3.11133V36.8887C22.0973 37.958 21.2273 38.8281 20.1579 38.8281H3.11133C2.04195 38.8281 1.17188 37.958 1.17188 36.8887V3.11133C1.17188 2.04195 2.04195 1.17188 3.11133 1.17188H20.1578C21.2273 1.17188 22.0973 2.04195 22.0973 3.11133Z" fill="#CB6CE6"/>
<path d="M32.4692 5.05078C32.1456 5.05078 31.8833 5.31312 31.8833 5.63672C31.8833 5.96031 32.1456 6.22266 32.4692 6.22266H34.3633C34.687 6.22266 34.9492 5.96031 34.9492 5.63672C34.9492 5.31312 34.687 5.05078 34.3633 5.05078H32.4692Z" fill="#CB6CE6"/>
<path d="M15.1948 3.09713L14.6185 4.0183C14.5235 4.1708 14.3592 4.26182 14.179 4.26182H9.08994C8.91018 4.26182 8.74564 4.17049 8.6501 4.01775L8.07463 3.09666C7.85057 2.73924 7.46494 2.52588 7.04307 2.52588H3.90088C3.14268 2.52588 2.52588 3.14275 2.52588 3.90088V21.4454C2.52588 21.769 2.78822 22.0313 3.11182 22.0313C3.43541 22.0313 3.69775 21.769 3.69775 21.4454V3.90088C3.69775 3.78885 3.78893 3.69775 3.90088 3.69775H7.04307C7.05869 3.69775 7.07353 3.70596 7.08127 3.71838L7.6565 4.639C7.96783 5.13658 8.50369 5.43369 9.08994 5.43369H14.179C14.7665 5.43369 15.3025 5.13627 15.6124 4.639L16.1889 3.71768C16.1967 3.70525 16.2108 3.69783 16.2267 3.69783H19.3688C19.4809 3.69783 19.572 3.789 19.572 3.90096V36.0994C19.572 36.2114 19.4809 36.3025 19.3688 36.3025H3.90088C3.78885 36.3025 3.69775 36.2113 3.69775 36.0994V24.1798C3.69775 23.8562 3.43541 23.5938 3.11182 23.5938C2.78822 23.5938 2.52588 23.8562 2.52588 24.1798V36.0993C2.52588 36.8575 3.14275 37.4743 3.90088 37.4743H19.3688C20.127 37.4743 20.7438 36.8574 20.7438 36.0993V3.90088C20.7438 3.14268 20.127 2.52588 19.3688 2.52588H16.2267C15.8033 2.52588 15.4173 2.73986 15.1948 3.09713Z" fill="#CB6CE6"/>
<path d="M16.0991 15.5925C16.2491 15.5925 16.3991 15.5352 16.5135 15.4207C16.7423 15.1918 16.7421 14.8208 16.5132 14.5921C15.2093 13.2891 13.4767 12.5715 11.6346 12.5715C9.79241 12.5715 8.05983 13.2891 6.75601 14.5921C6.5271 14.8208 6.52694 15.1918 6.75569 15.4207C6.98444 15.6496 7.35546 15.6497 7.58429 15.421C8.66687 14.3392 10.1053 13.7434 11.6346 13.7434C13.1639 13.7434 14.6023 14.3392 15.6849 15.421C15.7993 15.5354 15.9491 15.5925 16.0991 15.5925Z" fill="#CB6CE6"/>
<path d="M14.3135 17.3785C14.4634 17.3785 14.6134 17.3213 14.7278 17.2068C14.9566 16.978 14.9566 16.607 14.7278 16.3782C13.0224 14.6728 10.2474 14.6728 8.54198 16.3782C8.31315 16.6071 8.31315 16.9781 8.54198 17.2068C8.77081 17.4356 9.14183 17.4356 9.37058 17.2068C10.6192 15.9583 12.6506 15.9584 13.8991 17.2068C14.0136 17.3212 14.1635 17.3785 14.3135 17.3785Z" fill="#CB6CE6"/>
<path d="M11.1563 18.9927C11.4202 18.7288 11.8496 18.7289 12.1134 18.9927C12.3422 19.2215 12.7133 19.2215 12.942 18.9927C13.1708 18.7639 13.1708 18.3928 12.942 18.1641C12.2213 17.4434 11.0485 17.4433 10.3276 18.1641C10.0988 18.3929 10.0988 18.7639 10.3276 18.9928C10.4421 19.1071 10.592 19.1644 10.742 19.1644C10.8919 19.1642 11.0418 19.1071 11.1563 18.9927Z" fill="#CB6CE6"/>
<path d="M11.6346 23.8455C12.6539 23.8455 13.4832 23.0162 13.4832 21.9969C13.4832 20.9775 12.6539 20.1482 11.6346 20.1482C10.6152 20.1482 9.78589 20.9775 9.78589 21.9969C9.78589 23.0162 10.6152 23.8455 11.6346 23.8455ZM11.6346 21.3201C12.0077 21.3201 12.3114 21.6237 12.3114 21.9969C12.3114 22.3701 12.0078 22.6737 11.6346 22.6737C11.2614 22.6737 10.9578 22.3701 10.9578 21.9969C10.9578 21.6237 11.2614 21.3201 11.6346 21.3201Z" fill="#CB6CE6"/>
<path d="M5.52441 28.0497V30.2595C5.52441 31.0178 6.14129 31.6346 6.89957 31.6346H16.3699C17.1282 31.6346 17.745 31.0178 17.745 30.2595V28.0497C17.745 27.2914 17.1282 26.6746 16.3699 26.6746H6.89957C6.14129 26.6746 5.52441 27.2914 5.52441 28.0497ZM6.69629 28.0497C6.69629 27.9376 6.78746 27.8464 6.89957 27.8464H16.3699C16.482 27.8464 16.5732 27.9376 16.5732 28.0497V30.2595C16.5732 30.3716 16.482 30.4628 16.3699 30.4628H6.89957C6.78746 30.4628 6.69629 30.3716 6.69629 30.2595V28.0497Z" fill="#CB6CE6"/>
<path d="M29.2671 18.8951C29.2671 18.2238 28.721 17.6777 28.0498 17.6777H25.5244C24.8531 17.6777 24.3071 18.2238 24.3071 18.8951V20.1578C24.3071 20.829 24.8531 21.3751 25.5244 21.3751H28.0498C28.721 21.3751 29.2671 20.829 29.2671 20.1578V18.8951ZM28.0953 20.1578C28.0953 20.1828 28.0749 20.2032 28.0498 20.2032H25.5244C25.4994 20.2032 25.479 20.1828 25.479 20.1578V18.8951C25.479 18.87 25.4994 18.8496 25.5244 18.8496H28.0498C28.0749 18.8496 28.0953 18.87 28.0953 18.8951V20.1578Z" fill="#CB6CE6"/>
<path d="M36.8433 18.8951C36.8433 18.2238 36.2972 17.6777 35.626 17.6777H33.1006C32.4293 17.6777 31.8833 18.2238 31.8833 18.8951V20.1578C31.8833 20.829 32.4293 21.3751 33.1006 21.3751H35.626C36.2972 21.3751 36.8433 20.829 36.8433 20.1578V18.8951ZM35.6714 20.1578C35.6714 20.1828 35.651 20.2032 35.626 20.2032H33.1006C33.0756 20.2032 33.0552 20.1828 33.0552 20.1578V18.8951C33.0552 18.87 33.0756 18.8496 33.1006 18.8496H35.626C35.651 18.8496 35.6714 18.87 35.6714 18.8951V20.1578Z" fill="#CB6CE6"/>
<path d="M29.2671 23.9459C29.2671 23.2746 28.721 22.7285 28.0498 22.7285H25.5244C24.8531 22.7285 24.3071 23.2746 24.3071 23.9459V25.2086C24.3071 25.8798 24.8531 26.4259 25.5244 26.4259H28.0498C28.721 26.4259 29.2671 25.8798 29.2671 25.2086V23.9459ZM28.0953 25.2086C28.0953 25.2336 28.0749 25.254 28.0498 25.254H25.5244C25.4994 25.254 25.479 25.2336 25.479 25.2086V23.9459C25.479 23.9208 25.4994 23.9004 25.5244 23.9004H28.0498C28.0749 23.9004 28.0953 23.9208 28.0953 23.9459V25.2086Z" fill="#CB6CE6"/>
<path d="M36.8433 23.9459C36.8433 23.2746 36.2972 22.7285 35.626 22.7285H33.1006C32.4293 22.7285 31.8833 23.2746 31.8833 23.9459V25.2086C31.8833 25.8798 32.4293 26.4259 33.1006 26.4259H35.626C36.2972 26.4259 36.8433 25.8798 36.8433 25.2086V23.9459ZM35.6714 25.2086C35.6714 25.2336 35.651 25.254 35.626 25.254H33.1006C33.0756 25.254 33.0552 25.2336 33.0552 25.2086V23.9459C33.0552 23.9208 33.0756 23.9004 33.1006 23.9004H35.626C35.651 23.9004 35.6714 23.9208 35.6714 23.9459V25.2086Z" fill="#CB6CE6"/>
<path d="M29.2671 28.9969C29.2671 28.3256 28.721 27.7795 28.0498 27.7795H25.5244C24.8531 27.7795 24.3071 28.3256 24.3071 28.9969V30.2596C24.3071 30.9308 24.8531 31.4769 25.5244 31.4769H28.0498C28.721 31.4769 29.2671 30.9308 29.2671 30.2596V28.9969ZM28.0953 30.2595C28.0953 30.2845 28.0749 30.3049 28.0498 30.3049H25.5244C25.4994 30.3049 25.479 30.2845 25.479 30.2595V28.9968C25.479 28.9717 25.4994 28.9513 25.5244 28.9513H28.0498C28.0749 28.9513 28.0953 28.9717 28.0953 28.9968V30.2595Z" fill="#CB6CE6"/>
<path d="M36.8433 28.9969C36.8433 28.3256 36.2972 27.7795 35.626 27.7795H33.1006C32.4293 27.7795 31.8833 28.3256 31.8833 28.9969V30.2596C31.8833 30.9308 32.4293 31.4769 33.1006 31.4769H35.626C36.2972 31.4769 36.8433 30.9308 36.8433 30.2596V28.9969ZM35.6714 30.2595C35.6714 30.2845 35.651 30.3049 35.626 30.3049H33.1006C33.0756 30.3049 33.0552 30.2845 33.0552 30.2595V28.9968C33.0552 28.9717 33.0756 28.9513 33.1006 28.9513H35.626C35.651 28.9513 35.6714 28.9717 35.6714 28.9968V30.2595Z" fill="#CB6CE6"/>
<path d="M28.0498 32.8303H25.5244C24.8531 32.8303 24.3071 33.3764 24.3071 34.0477V35.3104C24.3071 35.9816 24.8531 36.5277 25.5244 36.5277H28.0498C28.721 36.5277 29.2671 35.9816 29.2671 35.3104V34.0477C29.2671 33.3763 28.721 32.8303 28.0498 32.8303ZM28.0953 35.3103C28.0953 35.3353 28.0749 35.3557 28.0498 35.3557H25.5244C25.4994 35.3557 25.479 35.3353 25.479 35.3103V34.0476C25.479 34.0225 25.4994 34.0021 25.5244 34.0021H28.0498C28.0749 34.0021 28.0953 34.0225 28.0953 34.0476V35.3103Z" fill="#CB6CE6"/>
<path d="M35.626 32.8303H33.1006C32.4293 32.8303 31.8833 33.3764 31.8833 34.0477V35.3104C31.8833 35.9816 32.4293 36.5277 33.1006 36.5277H35.626C36.2972 36.5277 36.8433 35.9816 36.8433 35.3104V34.0477C36.8433 33.3763 36.2972 32.8303 35.626 32.8303ZM35.6714 35.3103C35.6714 35.3353 35.651 35.3557 35.626 35.3557H33.1006C33.0756 35.3557 33.0552 35.3353 33.0552 35.3103V34.0476C33.0552 34.0225 33.0756 34.0021 33.1006 34.0021H35.626C35.651 34.0021 35.6714 34.0225 35.6714 34.0476V35.3103Z" fill="#CB6CE6"/>
<path d="M31.4581 9.50027C31.687 9.27144 31.687 8.90043 31.4581 8.67168C29.7528 6.96629 26.9778 6.96613 25.2722 8.67168C25.0434 8.90051 25.0434 9.27152 25.2722 9.50027C25.3867 9.61473 25.5366 9.67191 25.6866 9.67191C25.8365 9.67191 25.9865 9.61473 26.101 9.50027C27.3494 8.25176 29.381 8.25184 30.6295 9.50027C30.8583 9.72902 31.2292 9.72902 31.4581 9.50027Z" fill="#CB6CE6"/>
<path d="M27.0583 10.4571C26.8295 10.686 26.8295 11.057 27.0583 11.2857C27.2872 11.5146 27.6582 11.5146 27.887 11.2857C28.1508 11.0219 28.5802 11.0219 28.844 11.2857C28.9585 11.4001 29.1085 11.4574 29.2584 11.4574C29.4083 11.4574 29.5583 11.4002 29.6728 11.2857C29.9016 11.0569 29.9016 10.6859 29.6728 10.4571C28.9519 9.73629 27.7791 9.73629 27.0583 10.4571Z" fill="#CB6CE6"/>
</g>
<defs>
<clipPath id="clip0_75_355">
<rect width="40" height="40" fill="white"/>
</clipPath>
</defs>
</svg>
