<svg width="40" height="40" viewBox="0 0 40 40" fill="none" xmlns="http://www.w3.org/2000/svg">
<g clip-path="url(#clip0_75_380)">
<path d="M39.6707 11.4253L20.3373 0.0918907C20.134 -0.0267812 19.884 -0.0307655 19.678 0.0832188L0.344688 10.7499C0.132031 10.8666 0 11.0906 0 11.3332V39.3332C0 39.7019 0.298672 39.9999 0.666641 39.9999H4C4.36797 39.9999 4.66664 39.7019 4.66664 39.3332V15.9999H35.3333V39.3333C35.3333 39.702 35.6313 39.9999 35.9999 39.9999H39.3333C39.702 39.9999 39.9999 39.702 39.9999 39.3333V11.9999C40 11.7632 39.8747 11.5445 39.6707 11.4253ZM38.6666 38.6666H36.6666V15.3332C36.6666 14.9653 36.3687 14.6666 36 14.6666H4C3.63203 14.6666 3.33336 14.9653 3.33336 15.3332V38.6666H1.33336V11.7266L19.99 1.43322L38.6666 12.3819V38.6666Z" fill="#CB6CE6"/>
<path d="M33.3331 30.6665H25.3331C24.9645 30.6665 24.6665 30.9645 24.6665 31.3331V39.3331C24.6665 39.7018 24.9645 39.9998 25.3331 39.9998H33.3331C33.7018 39.9998 33.9998 39.7018 33.9998 39.3331V31.3331C33.9998 30.9645 33.7018 30.6665 33.3331 30.6665ZM32.6664 38.6665H25.9998V31.9999H32.6664V38.6665Z" fill="#CB6CE6"/>
<path d="M30.0002 31.333V33.333H28.6669V31.333H27.3335V33.9996C27.3335 34.3683 27.6315 34.6663 28.0001 34.6663H30.6668C31.0355 34.6663 31.3334 34.3683 31.3334 33.9996V31.333H30.0002Z" fill="#CB6CE6"/>
<path d="M25.3331 30.6665H17.3331C16.9652 30.6665 16.6665 30.9645 16.6665 31.3331V39.3331C16.6665 39.7018 16.9652 39.9998 17.3331 39.9998H25.3331C25.7018 39.9998 25.9998 39.7018 25.9998 39.3331V31.3331C25.9998 30.9645 25.7018 30.6665 25.3331 30.6665ZM24.6664 38.6665H17.9998V31.9999H24.6664V38.6665Z" fill="#CB6CE6"/>
<path d="M22.0002 31.333V33.333H20.6669V31.333H19.3335V33.9996C19.3335 34.3683 19.6322 34.6663 20.0001 34.6663H22.6668C23.0354 34.6663 23.3334 34.3683 23.3334 33.9996V31.333H22.0002Z" fill="#CB6CE6"/>
<path d="M33.3331 22.6665H25.3331C24.9645 22.6665 24.6665 22.9645 24.6665 23.3331V31.3331C24.6665 31.7018 24.9645 31.9998 25.3331 31.9998H33.3331C33.7018 31.9998 33.9998 31.7018 33.9998 31.3331V23.3331C33.9998 22.9645 33.7018 22.6665 33.3331 22.6665ZM32.6664 30.6665H25.9998V23.9999H32.6664V30.6665Z" fill="#CB6CE6"/>
<path d="M30.0002 23.333V25.333H28.6669V23.333H27.3335V25.9996C27.3335 26.3683 27.6315 26.6663 28.0001 26.6663H30.6668C31.0355 26.6663 31.3334 26.3683 31.3334 25.9996V23.333H30.0002Z" fill="#CB6CE6"/>
<path d="M36 19.9998H4V21.3331H36V19.9998Z" fill="#CB6CE6"/>
<path d="M36 17.333H4V18.6664H36V17.333Z" fill="#CB6CE6"/>
<path d="M23.3333 9.33301H16.6666C16.2987 9.33301 16 9.63168 16 9.99965V12.6663C16 13.0343 16.2987 13.3329 16.6666 13.3329H23.3333C23.702 13.3329 23.9999 13.0343 23.9999 12.6663V9.99965C23.9999 9.63168 23.702 9.33301 23.3333 9.33301ZM22.6666 11.9997H17.3332V10.6664H22.6666V11.9997Z" fill="#CB6CE6"/>
</g>
<defs>
<clipPath id="clip0_75_380">
<rect width="40" height="40" fill="white"/>
</clipPath>
</defs>
</svg>
