<svg width="71" height="35" viewBox="0 0 71 35" fill="none" xmlns="http://www.w3.org/2000/svg">
<mask id="mask0_1655_26603" style="mask-type:luminance" maskUnits="userSpaceOnUse" x="21" y="0" width="39" height="35">
<path d="M21.875 0.405762H59.1822V34.845H21.875V0.405762Z" fill="white"/>
</mask>
<g mask="url(#mask0_1655_26603)">
<path d="M41.7078 0.41748C36.5489 0.41748 31.3959 0.41748 26.2428 0.41748C25.1877 0.41748 24.2259 0.650651 23.3457 1.26855C22.5179 1.84565 22.1449 2.56265 22.1565 3.58276C22.1857 7.58746 22.1623 11.598 22.1623 15.6085C22.1623 19.963 22.1623 24.3116 22.1623 28.666C22.1623 28.9342 22.1682 29.2023 22.1623 29.4705C22.1565 29.7386 22.2731 29.896 22.5587 29.896C22.8269 29.896 23.095 29.9018 23.3632 29.9018H34.5845C35.9194 29.9018 35.6629 29.8494 36.0243 30.887C36.6888 32.7931 37.9888 34.0056 39.9299 34.5594C41.9935 35.1423 44.6166 34.198 45.7475 32.3851C46.1264 31.7672 46.4237 31.1143 46.6394 30.4265C46.7734 30.0067 46.9541 29.8843 47.3505 29.8902C48.3065 29.9076 49.2625 29.8668 50.2127 29.9018C51.8391 29.9601 53.3721 28.5378 53.3372 26.824C53.2672 22.9708 53.3139 19.1119 53.3139 15.2587C53.3139 15.1014 53.3139 14.9498 53.3139 14.7982C53.3139 14.5126 53.1856 14.3785 52.9 14.396C52.8592 14.396 52.8184 14.396 52.7834 14.396C51.1803 14.396 51.4718 14.2853 51.466 15.626C51.4543 19.0594 51.4602 22.4987 51.4602 25.9321C51.4602 26.2002 51.4835 26.4684 51.4543 26.7365C51.3785 27.5701 51.0638 27.8849 50.2244 27.9024C49.2742 27.9199 48.3182 27.8849 47.3622 27.9082C46.89 27.9257 46.7676 27.7217 46.6277 27.2845C45.7941 24.7021 44.0045 23.2098 41.3872 23.0991C39.0322 23 36.7996 24.4981 35.9427 27.028C35.6512 27.8849 35.6687 27.9024 34.8002 27.9024C31.5183 27.9082 28.2306 27.9082 24.9487 27.9024C24.7564 27.9024 24.5465 27.949 24.3833 27.8849C24.2142 27.8091 24.0977 27.6867 24.0335 27.5177C23.9752 27.2612 24.0102 26.9872 24.0102 26.7191C24.0102 19.2751 24.0102 11.8253 24.0102 4.38137C24.0102 2.91823 24.5115 2.42274 26.0213 2.41691C30.1834 2.41108 34.3455 2.41108 38.5076 2.41691H49.962C50.2302 2.41691 50.4983 2.40525 50.7665 2.42274C51.3086 2.45772 51.431 2.56264 51.4543 3.11059C51.4776 3.9092 51.4718 4.71364 51.4602 5.51807C51.4543 5.89697 51.5884 6.06602 51.9848 6.06602C53.6286 6.04853 53.2789 6.17678 53.3139 4.84188C53.3313 4.22981 53.3372 3.61774 53.3139 3.0115C53.2964 2.55681 53.4887 2.40525 53.9201 2.41108C55.1442 2.42857 56.3684 2.42274 57.5867 2.41691C58.3328 2.41108 58.3328 2.39942 58.3503 1.66494C58.3503 1.50755 58.3562 1.35599 58.3503 1.20443C58.3328 0.42331 58.3328 0.41748 57.5051 0.41748C52.2354 0.41748 46.9658 0.41748 41.6962 0.41748H41.7078ZM44.8789 28.9342C44.8789 29.0857 44.8906 29.2431 44.8789 29.3947C44.7041 31.4816 42.4015 33.6675 39.6618 32.3734C38.1636 31.6623 37.0852 29.6337 37.9305 27.3836C38.7874 25.116 41.5329 24.4048 43.2992 25.7106C44.366 26.515 44.9372 27.5701 44.8789 28.9342Z" fill="#442063"/>
</g>
<mask id="mask1_1655_26603" style="mask-type:luminance" maskUnits="userSpaceOnUse" x="0" y="4" width="22" height="31">
<path d="M0.363281 4.99902H21.8732V34.8448H0.363281V4.99902Z" fill="white"/>
</mask>
<g mask="url(#mask1_1655_26603)">
<path d="M14.2364 5.64593C13.1696 5.64593 12.097 5.68673 11.0303 5.6401C9.67789 5.5818 8.57033 6.11227 7.64931 7.02163C7.03141 7.64536 6.4718 8.30989 5.95883 9.02106C4.85127 10.525 3.75537 12.0348 2.71194 13.5795C1.82589 14.8969 1.2896 16.3426 1.31875 17.969C1.34207 19.3039 1.32458 20.6388 1.33041 21.9737C1.33041 22.2884 1.33041 22.5974 0.893212 22.6265C0.555116 22.6498 0.456018 22.8772 0.456018 23.1803C0.456018 24.4744 0.374409 25.7802 0.479335 27.0684C0.607579 28.7356 1.95414 29.8723 3.65045 29.8956C4.25669 29.9073 4.86876 29.9131 5.48083 29.8956C5.88888 29.8839 6.05793 30.0238 6.16285 30.4552C6.53593 32.0058 7.42197 33.2183 8.81516 34.0052C11.9338 35.754 15.6704 34.2209 16.8595 30.7875C17.1568 29.9189 17.1335 29.9073 17.9904 29.9014C18.754 29.8956 19.5177 29.8839 20.2813 29.9014C20.6893 29.9131 20.8292 29.7324 20.8001 29.3535C20.7884 29.2019 20.8001 29.0504 20.8001 28.8988C20.8001 22.1835 20.7826 15.4682 20.8176 8.74709C20.8234 7.44133 20.293 6.55529 19.1854 5.97819C18.8182 5.78583 18.4276 5.6809 18.0137 5.66341C16.7546 5.62261 15.4955 5.64593 14.2364 5.64593ZM8.19143 9.4466C9.00753 8.13501 9.65457 7.65702 10.7097 7.65119C13.0355 7.6337 15.3614 7.6337 17.6931 7.64536C18.55 7.65119 18.859 7.94848 18.9406 8.78789C18.9639 9.01523 18.9464 9.24257 18.9464 9.47574C18.9464 15.235 18.9464 21.0002 18.9464 26.7595C18.9464 26.9926 18.9406 27.22 18.9464 27.4473C18.9522 27.7271 18.824 27.8729 18.55 27.8903C18.3576 27.902 18.1653 27.902 17.9729 27.902C17.1393 27.902 17.1452 27.902 16.8712 27.1092C16.5564 26.2057 16.16 25.3488 15.4255 24.6901C13.8749 23.2969 12.1262 22.714 10.0626 23.2969C7.95243 23.8973 6.73995 25.3488 6.15702 27.3832C6.0521 27.7504 5.91803 27.902 5.55661 27.8962C4.86876 27.8903 4.18091 27.9137 3.49306 27.8903C2.85767 27.8612 2.49625 27.5289 2.46128 26.911C2.42047 26.2931 2.44379 25.6927 2.46128 25.0806C2.46128 24.9407 2.54289 24.6959 2.60701 24.6843C3.40562 24.6085 3.15496 24.0022 3.17245 23.5592C3.20159 22.8714 3.17828 22.1835 3.17828 21.5015C3.17828 20.9244 3.17828 20.3531 3.18411 19.7819C3.18994 19.368 3.39979 19.1523 3.83115 19.1698C4.09347 19.1756 4.36162 19.1698 4.62976 19.1698C7.22378 19.1698 9.81779 19.1756 12.4176 19.164C13.9158 19.1523 15.2157 17.9456 15.2681 16.465C15.3148 15.0543 15.3148 13.6378 15.2681 12.2271C15.2215 10.7932 13.9566 9.56901 12.5284 9.53986C11.3859 9.51655 10.2375 9.53987 9.09497 9.53404C8.80933 9.52821 8.5237 9.48157 8.19143 9.4466ZM8.03404 17.3103C6.70498 17.3103 5.37007 17.3219 4.03518 17.3044C3.35316 17.2986 3.2424 17.1237 3.4814 16.465C3.54552 16.2843 3.63296 16.1153 3.70874 15.9404C4.3383 14.4073 5.49249 13.2065 6.36105 11.8308C6.59422 11.4635 6.96729 11.3936 7.36368 11.3936C8.99004 11.4052 10.6222 11.3936 12.2544 11.4285C12.9423 11.446 13.2687 11.8016 13.2804 12.5244C13.3037 13.7078 13.3037 14.8911 13.2804 16.0686C13.2629 17.0013 12.9598 17.2986 12.0387 17.3103C10.7038 17.3219 9.36894 17.3103 8.03404 17.3103ZM7.93495 28.8755C7.93495 28.7589 7.93495 28.6481 7.93495 28.5316C7.97575 27.0859 8.79767 26.06 9.9577 25.4304C11.1177 24.8008 12.3593 24.9291 13.5252 25.6636C15.4139 26.8527 15.478 29.6799 14.5745 31.044C13.9974 31.9125 13.2687 32.5479 12.2253 32.682C9.77699 33.0143 7.91746 31.3471 7.93495 28.8755Z" fill="#442063"/>
</g>
<path d="M48.3755 8.8458H57.1777C57.4458 8.8458 57.7198 8.88078 57.9763 8.82831C58.1162 8.79917 58.2503 8.63595 58.3436 8.50187C58.396 8.42027 58.361 8.28036 58.361 8.16378C58.3552 6.83471 58.4485 6.9921 57.2127 6.9921C51.3076 6.9921 45.3968 6.9921 39.4918 6.9921C39.2644 6.9921 39.0371 6.99793 38.8097 6.9921C38.4367 6.96878 38.2443 7.09703 38.2501 7.50507C38.2676 9.0848 38.1044 8.83997 39.4626 8.8458C42.4297 8.85746 45.4026 8.8458 48.3755 8.8458Z" fill="#442063"/>
<path d="M54.8045 13.6728C57.0604 13.6728 59.3105 13.6728 61.5664 13.6728C62.4466 13.6728 62.4466 13.6611 62.4524 12.8042C62.4524 12.6119 62.4466 12.4195 62.4524 12.233C62.4524 11.9473 62.3184 11.8133 62.0386 11.8133C61.8462 11.8133 61.6538 11.8133 61.4615 11.8133C57.0312 11.8133 52.601 11.8133 48.1708 11.8133C47.9434 11.8133 47.7103 11.7958 47.4888 11.8424C47.3722 11.8657 47.2031 12.0173 47.2031 12.1106C47.2031 12.5944 47.2439 13.0782 47.2789 13.5679C47.652 13.6028 48.0192 13.667 48.3923 13.667C50.5258 13.6786 52.6651 13.6728 54.8045 13.6728Z" fill="#442063"/>
<path d="M39.8012 28.9457C39.8128 29.8609 40.3725 30.403 41.2993 30.3972C42.2611 30.3972 42.8266 29.7968 42.7916 28.8175C42.7566 27.9489 42.1096 27.366 41.2294 27.4068C40.3317 27.4476 39.7837 28.0364 39.8012 28.9457Z" fill="#442063"/>
<path d="M11.5763 30.403C12.4915 30.3855 13.022 29.8259 13.0103 28.8699C13.0045 27.9605 12.4332 27.4359 11.518 27.3892C10.6611 27.3484 9.93246 28.1179 10.0141 28.9865C10.0957 29.8783 10.6378 30.4146 11.5763 30.403Z" fill="#442063"/>
<mask id="mask2_1655_26603" style="mask-type:luminance" maskUnits="userSpaceOnUse" x="59" y="0" width="4" height="4">
<path d="M59.1797 0.405762H62.1643V3.50692H59.1797V0.405762Z" fill="white"/>
</mask>
<g mask="url(#mask2_1655_26603)">
<path d="M59.6133 1.46089C59.6133 1.75235 59.7182 1.99718 59.9222 2.2012C60.1263 2.41105 60.3769 2.51015 60.6684 2.51015C60.954 2.51015 61.2047 2.41105 61.4087 2.2012C61.6127 1.99718 61.7176 1.75235 61.7176 1.46089C61.7176 1.16942 61.6127 0.924595 61.4087 0.720571C61.2047 0.51072 60.954 0.411621 60.6684 0.411621C60.3769 0.411621 60.1263 0.51072 59.9222 0.720571C59.7182 0.924595 59.6133 1.16942 59.6133 1.46089Z" fill="#442063"/>
</g>
<mask id="mask3_1655_26603" style="mask-type:luminance" maskUnits="userSpaceOnUse" x="63" y="0" width="4" height="4">
<path d="M63.6562 0.405762H66.6408V3.50692H63.6562V0.405762Z" fill="white"/>
</mask>
<g mask="url(#mask3_1655_26603)">
<path d="M63.6875 1.4604C63.6875 1.75186 63.7866 1.99669 63.9965 2.20071C64.2005 2.41057 64.4453 2.50966 64.7368 2.50966C65.0282 2.50966 65.2731 2.41057 65.4771 2.20071C65.6869 1.99669 65.786 1.75186 65.786 1.4604C65.786 1.16894 65.6869 0.924107 65.4771 0.720083C65.2731 0.510232 65.0282 0.411133 64.7368 0.411133C64.4453 0.411133 64.2005 0.510232 63.9965 0.720083C63.7866 0.924107 63.6875 1.16894 63.6875 1.4604Z" fill="#442063"/>
</g>
<path d="M60.668 7.91938C60.668 8.21085 60.7671 8.4615 60.9711 8.66553C61.1809 8.86955 61.4258 8.96865 61.7172 8.96865C62.0087 8.96865 62.2535 8.86955 62.4575 8.66553C62.6616 8.4615 62.7665 8.21085 62.7665 7.91938C62.7665 7.63375 62.6616 7.38309 62.4575 7.17907C62.2535 6.97504 62.0087 6.87012 61.7172 6.87012C61.4258 6.87012 61.1809 6.97504 60.9711 7.17907C60.7671 7.38309 60.668 7.63375 60.668 7.91938Z" fill="#442063"/>
<path d="M64.7344 12.746C64.7344 13.0316 64.8393 13.2823 65.0433 13.4863C65.2473 13.6904 65.4922 13.7953 65.7836 13.7953C66.0751 13.7953 66.3199 13.6904 66.5298 13.4863C66.7338 13.2823 66.8329 13.0316 66.8329 12.746C66.8329 12.4546 66.7338 12.2039 66.5298 11.9999C66.3199 11.7958 66.0751 11.6909 65.7836 11.6909C65.4922 11.6909 65.2473 11.7958 65.0433 11.9999C64.8393 12.2039 64.7344 12.4546 64.7344 12.746Z" fill="#442063"/>
<mask id="mask4_1655_26603" style="mask-type:luminance" maskUnits="userSpaceOnUse" x="68" y="10" width="3" height="4">
<path d="M68.1328 10.9678H70.3654V13.9523H68.1328V10.9678Z" fill="white"/>
</mask>
<g mask="url(#mask4_1655_26603)">
<path d="M68.2578 12.746C68.2578 13.0316 68.3569 13.2823 68.5668 13.4863C68.7708 13.6904 69.0156 13.7953 69.3071 13.7953C69.5985 13.7953 69.8434 13.6904 70.0474 13.4863C70.2572 13.2823 70.3563 13.0316 70.3563 12.746C70.3563 12.4546 70.2572 12.2039 70.0474 11.9999C69.8434 11.7958 69.5985 11.6909 69.3071 11.6909C69.0156 11.6909 68.7708 11.7958 68.5668 11.9999C68.3569 12.2039 68.2578 12.4546 68.2578 12.746Z" fill="#442063"/>
</g>
</svg>
