<svg width="65" height="65" viewBox="0 0 65 65" fill="none" xmlns="http://www.w3.org/2000/svg">
<mask id="mask0_1655_26637" style="mask-type:luminance" maskUnits="userSpaceOnUse" x="0" y="0" width="65" height="65">
<path d="M0.242188 0H64.4822V64.2467H0.242188V0Z" fill="white"/>
</mask>
<g mask="url(#mask0_1655_26637)">
<path d="M58.3885 5.59715H27.5037C26.9346 5.59715 26.4727 6.05911 26.4727 6.6282C26.4727 7.19729 26.9346 7.65926 27.5037 7.65926H58.3885C60.4439 7.65926 62.1177 9.33305 62.1177 11.3885V44.1144C62.1177 46.1698 60.4439 47.8369 58.3885 47.8369H6.02568C3.97027 47.8369 2.29648 46.1698 2.29648 44.1144V22.8171C2.29648 22.248 1.83452 21.786 1.26543 21.786C0.696339 21.786 0.234375 22.248 0.234375 22.8171V44.1144C0.234375 47.308 2.83209 49.899 6.02568 49.899H21.4513V55.4024H15.2449C12.4396 55.4024 10.1566 57.3172 10.1566 59.6739V62.9144C10.1566 63.4834 10.6186 63.9454 11.1876 63.9454H53.2332C53.8023 63.9454 54.2643 63.4834 54.2643 62.9144V59.6739C54.2643 57.3172 51.9812 55.4024 49.1693 55.4024H42.9628V49.899H58.3885C61.5821 49.899 64.1798 47.308 64.1798 44.1144V11.3885C64.1798 8.19487 61.5821 5.59715 58.3885 5.59715ZM52.2022 59.6739V61.8833H12.2187V59.6739C12.2187 58.4755 13.6046 57.4578 15.2449 57.4578H49.1693C50.8163 57.4578 52.2022 58.4755 52.2022 59.6739ZM40.9007 55.4024H23.5134V49.899H40.9007V55.4024ZM5.24904 27.1087C4.67996 27.1087 4.21799 27.5706 4.21799 28.1397V40.8605C4.21799 41.4296 4.67996 41.8916 5.24904 41.8916H59.1718C59.7409 41.8916 60.2029 41.4296 60.2029 40.8605V11.2679C60.2029 10.3373 59.4396 9.58076 58.509 9.58076H28.8093C28.2402 9.58076 27.7782 10.0427 27.7782 10.6118C27.7782 11.1809 28.2402 11.6429 28.8093 11.6429H58.1408V39.8295H55.215V19.2553C55.215 18.6862 54.753 18.2242 54.1839 18.2242H49.3902C48.8211 18.2242 48.3591 18.6862 48.3591 19.2553V39.8295H46.3037V27.5439C46.3037 26.9748 45.8485 26.5128 45.2794 26.5128H40.4789C39.9099 26.5128 39.4479 26.9748 39.4479 27.5439V39.8295H37.3992V25.542C37.3992 24.9729 36.9372 24.511 36.3681 24.511H31.5677C30.9986 24.511 30.5366 24.9729 30.5366 25.542V39.8295H28.4879V31.4873C28.4879 30.9182 28.026 30.4563 27.4569 30.4563H22.6631C22.0941 30.4563 21.6321 30.9182 21.6321 31.4873V39.8295H6.2801V28.1397C6.2801 27.5706 5.81813 27.1087 5.24904 27.1087ZM50.4145 20.2796H53.1529V39.8295H50.4145V20.2796ZM41.51 28.5749H44.2483V39.8295H41.51V28.5749ZM32.5987 26.5731H35.3371V39.8295H32.5987V26.5731ZM23.6942 32.5184H26.4258V39.8295H23.6942V32.5184ZM5.01471 11.3014C4.613 11.4554 4.35189 11.837 4.35189 12.2655V14.495C4.35189 14.9235 4.613 15.3051 5.01471 15.4524L5.89178 15.7939C6.03238 16.2558 6.21984 16.7044 6.44748 17.1329L6.06585 17.9966C5.89178 18.3849 5.97212 18.8402 6.2734 19.1414L7.85346 20.7215C8.15474 21.0228 8.61001 21.1031 8.99833 20.929L9.86201 20.5474C10.2905 20.7751 10.7391 20.9558 11.201 21.1031L11.5425 21.9869C11.6965 22.3819 12.0781 22.643 12.4999 22.643H14.7294C15.1579 22.643 15.5395 22.3819 15.6935 21.9869L16.0282 21.1031C16.4969 20.9558 16.9455 20.7751 17.374 20.5474L18.2309 20.929C18.6193 21.1031 19.0812 21.0228 19.3825 20.7215L20.9559 19.1414C21.2572 18.8402 21.3442 18.3849 21.1701 17.9966L20.7818 17.1329C21.0094 16.7111 21.1969 16.2625 21.3375 15.7939L22.2213 15.4524C22.6163 15.3051 22.8774 14.9168 22.8774 14.495V12.2655C22.8774 11.837 22.6163 11.4554 22.2213 11.3014L21.3375 10.9667C21.1969 10.498 21.0094 10.0494 20.7818 9.62094L21.1701 8.76396C21.3442 8.37564 21.2572 7.92037 20.9559 7.61239L19.3825 6.03903C19.0812 5.73775 18.6193 5.6574 18.2309 5.82478L17.374 6.2131C16.9455 5.98547 16.4969 5.798 16.0282 5.65071L15.6935 4.77364C15.5395 4.37863 15.1579 4.11752 14.7294 4.11752H12.4999C12.0781 4.11752 11.6965 4.37863 11.5425 4.77364L11.201 5.65071C10.7391 5.798 10.2905 5.98547 9.86201 6.2131L8.99833 5.82478C8.61001 5.6574 8.15474 5.73775 7.85346 6.03903L6.2734 7.61239C5.97212 7.92037 5.89178 8.37564 6.06585 8.76396L6.44748 9.62094C6.21984 10.0561 6.03238 10.5047 5.89178 10.9667L5.01471 11.3014ZM6.414 12.9752L7.11699 12.7007C7.43166 12.5802 7.67269 12.3057 7.74634 11.9776C7.89363 11.355 8.14135 10.7658 8.47611 10.2235C8.65688 9.93561 8.68366 9.57407 8.54306 9.2594L8.23508 8.5698L8.81087 8.00071L9.50047 8.30869C9.80844 8.44259 10.17 8.4225 10.4579 8.24173C11.0002 7.90698 11.5894 7.65925 12.212 7.51196C12.5401 7.43162 12.8146 7.19729 12.9351 6.88262L13.2096 6.17963H14.0264L14.2942 6.88262C14.4147 7.19729 14.6892 7.43162 15.0173 7.51196C15.6399 7.65925 16.2291 7.90698 16.7714 8.24173C17.0593 8.4225 17.4208 8.44259 17.7355 8.30869L18.4251 8.00071L18.9942 8.5698L18.6862 9.2594C18.5523 9.57407 18.5724 9.93561 18.7532 10.2235C19.0879 10.7591 19.329 11.3483 19.4829 11.9776C19.5633 12.3124 19.7976 12.5802 20.1123 12.7007L20.8153 12.9685V13.7853L20.1123 14.0598C19.7976 14.1803 19.5633 14.4481 19.4829 14.7762C19.329 15.4122 19.0879 16.0014 18.7532 16.537C18.5724 16.8249 18.5523 17.1865 18.6862 17.4944L18.9942 18.184L18.4251 18.7598L17.7355 18.4518C17.4208 18.3112 17.0593 18.338 16.7714 18.5188C16.2358 18.8535 15.6466 19.0946 15.0173 19.2486C14.6892 19.3289 14.4147 19.5632 14.2942 19.8779L14.0264 20.5809H13.2096L12.9351 19.8779C12.8146 19.5632 12.5468 19.3289 12.2187 19.2486C11.5961 19.0946 11.0002 18.8535 10.4579 18.5188C10.17 18.338 9.80844 18.3179 9.50047 18.4518L8.81087 18.7598L8.23508 18.184L8.54306 17.4944C8.68366 17.1865 8.65688 16.8249 8.47611 16.537C8.14135 15.9947 7.89363 15.4055 7.74634 14.7829C7.67269 14.4548 7.43166 14.1803 7.11699 14.0598L6.414 13.7853V12.9752ZM13.618 18.2979C16.3295 18.2979 18.5322 16.0951 18.5322 13.3769C18.5322 10.6654 16.3295 8.46267 13.618 8.46267C10.9064 8.46267 8.69705 10.6654 8.69705 13.3769C8.69705 16.0951 10.9064 18.2979 13.618 18.2979ZM13.618 10.5248C15.1913 10.5248 16.4701 11.8036 16.4701 13.3769C16.4701 14.957 15.1913 16.2357 13.618 16.2357C12.0379 16.2357 10.7592 14.957 10.7592 13.3769C10.7592 11.8036 12.0379 10.5248 13.618 10.5248ZM23.3996 7.69273C23.1117 7.19729 23.2791 6.56794 23.7678 6.28005C24.2633 5.99216 24.8926 6.15954 25.1805 6.65498C26.3656 8.68361 26.9949 11.0135 26.9949 13.3769C26.9949 20.755 20.9893 26.7605 13.618 26.7605C11.268 26.7605 8.96485 26.1379 6.94961 24.9729C6.85588 25.3144 6.59477 25.6023 6.23323 25.7094C6.1395 25.7362 6.03907 25.7496 5.95204 25.7496C5.50346 25.7496 5.08836 25.455 4.96115 24.9997L4.33181 22.8104C4.24477 22.5091 4.30503 22.181 4.49249 21.9266C4.67326 21.6655 4.96785 21.5115 5.28922 21.4981L7.56557 21.4178C8.12796 21.3977 8.61001 21.8396 8.6301 22.4087C8.64349 22.7769 8.46272 23.105 8.17483 23.2991C9.83523 24.2097 11.7032 24.6984 13.618 24.6984C19.8579 24.6984 24.9328 19.6235 24.9328 13.3769C24.9328 11.3751 24.4039 9.41339 23.3996 7.69273ZM2.1358 20.2528C0.897196 18.184 0.24107 15.8073 0.24107 13.3769C0.24107 6.00555 6.23993 0 13.618 0C15.968 0 18.2644 0.622648 20.2797 1.78091C20.3734 1.43946 20.6345 1.15157 20.996 1.05114C21.545 0.890455 22.1141 1.21182 22.2681 1.76083L22.8975 3.94345C22.9845 4.25142 22.9242 4.57948 22.7368 4.8339C22.5493 5.09501 22.2547 5.249 21.9401 5.26239L19.6637 5.34273C19.6503 5.34273 19.6369 5.34273 19.6235 5.34273C19.0745 5.34273 18.6193 4.90085 18.5992 4.34515C18.5858 3.97692 18.7666 3.64886 19.0545 3.4547C17.3941 2.55085 15.5261 2.06211 13.618 2.06211C7.3781 2.06211 2.29648 7.13703 2.29648 13.3769C2.29648 15.4323 2.85218 17.4409 3.90332 19.195C4.19791 19.6838 4.03722 20.3131 3.55517 20.6077C3.38779 20.7081 3.20033 20.755 3.02625 20.755C2.67141 20.755 2.32996 20.5742 2.1358 20.2528ZM24.4307 25.7027L33.3352 18.7665C33.6097 18.5523 33.9646 18.492 34.2859 18.5991L42.5946 21.2906L49.0755 14.7494L48.9751 14.7628C48.406 14.8097 47.9106 14.3879 47.857 13.8255C47.8101 13.2564 48.2319 12.7543 48.7943 12.7074L51.6933 12.453C52.0013 12.4262 52.3093 12.54 52.5235 12.761C52.7378 12.9819 52.8449 13.2899 52.8114 13.5979L52.49 16.4835C52.4298 17.0124 51.9812 17.4007 51.4657 17.4007C51.4255 17.4007 51.3853 17.4007 51.3519 17.394C50.8029 17.3337 50.4012 16.8517 50.4346 16.3094L43.6123 23.192C43.3378 23.4665 42.9294 23.5669 42.5611 23.4464L34.1721 20.7282L25.696 27.3229C25.5086 27.4702 25.2809 27.5439 25.06 27.5439C24.752 27.5439 24.4507 27.41 24.2499 27.1488C23.895 26.7003 23.9821 26.0508 24.4307 25.7027Z" fill="#442063"/>
</g>
</svg>
