<svg width="268" height="50" viewBox="0 0 268 50" fill="none" xmlns="http://www.w3.org/2000/svg">
<mask id="mask0_180_239" style="mask-type:luminance" maskUnits="userSpaceOnUse" x="0" y="0" width="55" height="49">
<path d="M0 0H54.4617V48.4741H0V0Z" fill="white"/>
</mask>
<g mask="url(#mask0_180_239)">
<path fill-rule="evenodd" clip-rule="evenodd" d="M48.6648 13.2824C44.5194 5.38721 36.1868 0.008955 25.7886 0.008955C10.8542 0.008955 0 11.2819 0 25.0578V25.1881C0 30.7757 1.75398 35.9307 4.86647 40.0853C6.8903 36.7309 9.46311 33.6742 12.2453 31.0037C11.5241 29.1706 11.1194 27.1514 11.1194 25.0485V24.9183C11.1194 16.5997 17.0699 9.83031 25.6583 9.83031C30.804 9.83031 35.061 12.3101 37.6384 16.1065L38.0757 15.9576C38.8201 15.725 39.5645 15.4831 40.3089 15.269C43.0353 14.4456 45.8407 13.7803 48.6648 13.2824ZM38.4945 17.237C25.2908 21.5871 14.5901 29.0822 8.23951 37.4753C7.32297 38.6989 6.48553 39.9597 5.73648 41.2112C8.00689 43.905 10.8682 46.0963 14.19 47.6409C14.5901 46.3057 15.0135 44.989 15.4508 43.7701C16.0417 42.1277 16.7721 40.5087 17.6096 38.9036C22.3225 30.0872 30.9621 22.2896 42.142 17.5394C43.6308 16.9114 45.1568 16.3391 46.72 15.8227C49.2603 14.9852 51.8098 14.3386 54.3501 13.8547C49.907 14.2967 45.3057 15.176 40.6904 16.5485C39.946 16.7532 39.2156 16.9858 38.4945 17.237Z" fill="#425EDB"/>
</g>
<mask id="mask1_180_239" style="mask-type:luminance" maskUnits="userSpaceOnUse" x="19" y="13" width="36" height="37">
<path d="M19.1406 13.9341H54.4621V50H19.1406V13.9341Z" fill="white"/>
</mask>
<g mask="url(#mask1_180_239)">
<path fill-rule="evenodd" clip-rule="evenodd" d="M40.9749 45.4127C47.4605 40.8486 51.4709 33.4093 51.4709 25.0582V24.9232C51.4709 22.5412 51.1452 20.2336 50.5311 18.0376C49.0237 19.0518 47.5907 20.1545 46.2555 21.3595C42.5196 24.7371 39.5048 29.0639 38.7604 34.1398C38.1695 38.2014 39.1419 41.9931 40.9749 45.4127ZM43.7571 18.8564C35.1919 23.9881 29.7951 31.8089 28.3249 40.5648C27.8085 43.6215 27.7666 46.7852 28.2505 49.9907C32.5819 49.5906 36.5086 48.2368 39.849 46.1525C39.1 44.7846 38.5277 43.4215 38.1137 42.0676C35.6525 34.1351 38.5882 26.4865 45.3622 20.3592C47.7257 18.2237 50.5683 16.2557 53.8111 14.5389C53.6203 14.5994 53.4296 14.6552 53.2202 14.7111C49.7495 15.7672 46.5812 17.1583 43.7571 18.8564ZM40.6679 19.0844C36.8715 21.5269 33.6706 24.3696 31.1862 27.7287C30.6744 27.6124 30.158 27.5193 29.6415 27.403C32.5075 24.0858 36.2992 21.3548 40.6679 19.0844ZM26.3988 31.5065C27.0269 31.5995 27.6596 31.6972 28.283 31.8135C26.664 34.4608 25.459 37.1918 24.5471 39.974C24.2633 40.83 24.0121 41.6721 23.7841 42.5328C22.8676 42.5328 21.9464 42.5328 21.0345 42.5328C21.3416 41.5419 21.6672 40.5648 22.0487 39.5925C23.156 36.7731 24.6029 34.0793 26.3988 31.5065ZM22.5698 49.9303C22.607 49.4557 22.6582 48.9765 22.7419 48.5019L19.4945 48.5764C19.4387 48.8462 19.4015 49.1347 19.3643 49.3999C20.3925 49.6465 21.4579 49.8139 22.5698 49.9303Z" fill="#CB6CE6"/>
</g>
<path d="M134.181 8.11839H136.805V17.6466H148.176V8.11839H150.781V29.6314H148.176V19.9543H136.805V29.6314H134.181V8.11839Z" fill="#425EDB"/>
<path d="M156 8.11839H158.624V29.6314H156V8.11839Z" fill="#425EDB"/>
<path d="M172.453 29.9477C171.038 29.9477 169.736 29.7104 168.545 29.2405C167.354 28.7706 166.33 28.0681 165.474 27.1376C164.618 26.1978 163.953 25.0347 163.483 23.6576C163.008 22.2711 162.776 20.6753 162.776 18.8748C162.776 17.065 163.008 15.4692 163.483 14.0921C163.953 12.7057 164.618 11.5425 165.474 10.612C166.33 9.68155 167.354 8.98368 168.545 8.50913C169.736 8.03923 171.038 7.80196 172.453 7.80196C174.537 7.80196 176.324 8.29977 177.812 9.29075C179.301 10.2864 180.436 11.7845 181.218 13.7943H178.445C177.836 12.4823 177.031 11.5379 176.026 10.9656C175.03 10.398 173.839 10.1096 172.453 10.1096C171.411 10.1096 170.452 10.305 169.587 10.6865C168.731 11.0587 167.986 11.617 167.354 12.3614C166.73 13.0965 166.246 14.013 165.902 15.1156C165.553 16.209 165.381 17.4605 165.381 18.8748C165.381 20.2892 165.553 21.55 165.902 22.6526C166.246 23.746 166.73 24.6578 167.354 25.3883C167.986 26.1234 168.731 26.6817 169.587 27.0632C170.452 27.4493 171.411 27.6401 172.453 27.6401C173.518 27.6401 174.467 27.4493 175.3 27.0632C176.128 26.6677 176.817 26.1606 177.366 25.5372C177.924 24.9044 178.343 24.1973 178.631 23.4156C178.915 22.6247 179.059 21.8245 179.059 21.015H172.453V18.7259H181.683V19.9542C181.683 21.4942 181.465 22.8759 181.032 24.1042C180.595 25.3325 179.976 26.3839 179.171 27.2493C178.375 28.1193 177.408 28.7892 176.268 29.2591C175.137 29.7151 173.867 29.9477 172.453 29.9477Z" fill="#425EDB"/>
<path d="M185.809 8.11839H188.433V17.6466H199.804V8.11839H202.409V29.6314H199.804V19.9543H188.433V29.6314H185.809V8.11839Z" fill="#425EDB"/>
<path d="M205.488 8.11839H208.243L212.709 26.7096H212.858L217.324 8.11839H220.86L225.308 26.7096H225.475L229.923 8.11839H232.696L227.318 29.6314H223.465L219.167 11.3379H219.018L214.7 29.6314H210.867L205.488 8.11839Z" fill="#425EDB"/>
<path d="M240.678 8.11839H243.6L251.732 29.6314H249.127L247.136 24.2531H237.142L235.132 29.6314H232.527L240.678 8.11839ZM246.205 21.9455L242.204 11.0401H242.055L238.054 21.9455H246.205Z" fill="#425EDB"/>
<path d="M257.268 21.3314L249.731 8.11839H252.504L258.496 18.8749H258.645L264.637 8.11839H267.41L259.873 21.3314V29.6314H257.268V21.3314Z" fill="#425EDB"/>
<path d="M64.5796 8.11839H73.4937C74.5963 8.11839 75.6152 8.30448 76.5457 8.67668C77.4762 9.03957 78.2671 9.54204 78.9278 10.1841C79.5838 10.8308 80.0909 11.6124 80.4538 12.5289C80.826 13.4362 81.0121 14.4225 81.0121 15.4879C81.0121 16.5812 80.826 17.5815 80.4538 18.4841C80.0909 19.3774 79.5838 20.1497 78.9278 20.7917C78.2671 21.4384 77.4762 21.9455 76.5457 22.3177C75.6152 22.6899 74.5963 22.876 73.4937 22.876H69.1762V29.6314H64.5796V8.11839ZM73.0285 18.726C74.1078 18.726 74.936 18.4422 75.5222 17.87C76.1177 17.2884 76.4155 16.4928 76.4155 15.4879C76.4155 14.483 76.1177 13.6967 75.5222 13.1244C74.936 12.5568 74.1078 12.2684 73.0285 12.2684H69.1762V18.726H73.0285Z" fill="black"/>
<path d="M93.6126 29.9477C92.0726 29.9477 90.6769 29.6965 89.4254 29.2033C88.1832 28.7101 87.1224 27.989 86.2431 27.0446C85.3591 26.1048 84.6799 24.9509 84.196 23.5831C83.7121 22.206 83.4702 20.6381 83.4702 18.8748C83.4702 17.1162 83.7121 15.5437 84.196 14.1665C84.6799 12.7894 85.3591 11.6309 86.2431 10.6865C87.1224 9.74669 88.1832 9.03021 89.4254 8.54635C90.6769 8.05319 92.0726 7.80196 93.6126 7.80196C95.1479 7.80196 96.5436 8.05319 97.7998 8.54635C99.0513 9.03021 100.117 9.74669 101.001 10.6865C101.88 11.6309 102.555 12.7894 103.029 14.1665C103.513 15.5437 103.755 17.1162 103.755 18.8748C103.755 20.6381 103.513 22.206 103.029 23.5831C102.555 24.9509 101.88 26.1048 101.001 27.0446C100.117 27.989 99.0513 28.7101 97.7998 29.2033C96.5436 29.6965 95.1479 29.9477 93.6126 29.9477ZM93.6126 25.7977C94.4175 25.7977 95.1572 25.6581 95.8272 25.3697C96.5064 25.0719 97.0926 24.6392 97.5765 24.067C98.0696 23.4994 98.4558 22.7782 98.7303 21.9082C99.0141 21.0289 99.1583 20.0193 99.1583 18.8748C99.1583 17.721 99.0141 16.7114 98.7303 15.8414C98.4558 14.9761 98.0696 14.2549 97.5765 13.6827C97.0926 13.1011 96.5064 12.6684 95.8272 12.38C95.1572 12.0962 94.4175 11.952 93.6126 11.952C92.817 11.952 92.0773 12.0962 91.398 12.38C90.7281 12.6684 90.1418 13.1011 89.6487 13.6827C89.1509 14.2549 88.7647 14.9761 88.4949 15.8414C88.2204 16.7114 88.0855 17.721 88.0855 18.8748C88.0855 20.0193 88.2204 21.0289 88.4949 21.9082C88.7647 22.7782 89.1509 23.4994 89.6487 24.067C90.1418 24.6392 90.7281 25.0719 91.398 25.3697C92.0773 25.6581 92.817 25.7977 93.6126 25.7977Z" fill="black"/>
<path d="M114.512 29.9477C113.321 29.9477 112.209 29.8035 111.18 29.5197C110.162 29.2219 109.268 28.7939 108.501 28.2356C107.728 27.668 107.11 26.9608 106.64 26.1141C106.165 25.258 105.867 24.281 105.746 23.1737H110.362C110.52 24.0298 110.962 24.709 111.683 25.2022C112.399 25.7 113.344 25.9466 114.512 25.9466C115.963 25.9466 116.991 25.7046 117.601 25.2208C118.206 24.7369 118.513 24.1042 118.513 23.3226C118.513 22.7922 118.336 22.3688 117.992 22.0571C117.643 21.7361 117.191 21.4802 116.633 21.2941C116.084 21.0987 115.451 20.9312 114.735 20.7916C114.014 20.6567 113.274 20.5032 112.52 20.3264C111.762 20.1543 111.022 19.9356 110.306 19.6751C109.585 19.4052 108.947 19.0377 108.389 18.5771C107.84 18.1211 107.393 17.5303 107.049 16.8091C106.7 16.0927 106.528 15.1901 106.528 14.1107C106.528 13.0592 106.733 12.1474 107.142 11.3751C107.551 10.5934 108.114 9.93744 108.836 9.4024C109.566 8.87202 110.417 8.47191 111.385 8.21137C112.362 7.94153 113.404 7.80196 114.512 7.80196C115.824 7.80196 116.973 7.96479 117.954 8.28581C118.931 8.59753 119.76 9.04417 120.43 9.62572C121.109 10.198 121.644 10.8679 122.03 11.6356C122.425 12.4079 122.686 13.2314 122.812 14.1107H118.196C118.033 13.4175 117.657 12.8592 117.061 12.4358C116.466 12.0171 115.665 11.8031 114.66 11.8031C113.493 11.8031 112.637 12.0357 112.092 12.4916C111.557 12.9522 111.292 13.4919 111.292 14.1107C111.292 14.6597 111.464 15.1063 111.813 15.4506C112.157 15.7856 112.604 16.0647 113.153 16.2881C113.711 16.5021 114.349 16.6789 115.07 16.8277C115.786 16.9766 116.526 17.1441 117.284 17.3302C118.038 17.5163 118.778 17.7489 119.499 18.0188C120.215 18.2793 120.848 18.6422 121.397 19.0981C121.956 19.5448 122.407 20.1124 122.756 20.7916C123.1 21.4616 123.277 22.3083 123.277 23.3226C123.277 24.2531 123.081 25.1231 122.7 25.928C122.328 26.7235 121.769 27.4261 121.025 28.0309C120.29 28.6264 119.373 29.101 118.271 29.4452C117.177 29.7802 115.926 29.9477 114.512 29.9477Z" fill="black"/>
<path d="M73.9771 47.567L77.3082 39.1926H79.1692L82.5004 47.567H80.4533L79.895 46.1154H76.5638L76.0055 47.567H73.9771ZM77.0663 44.6266H79.4111L78.2387 41.556L77.0663 44.6266Z" fill="#858585"/>
<path d="M95.3182 47.7345C94.4715 47.7345 93.7224 47.5484 93.0664 47.1762C92.4197 46.804 91.9126 46.2969 91.5404 45.6502C91.1775 44.9942 91.0007 44.2358 91.0007 43.3798C91.0007 42.5237 91.1775 41.7747 91.5404 41.128C91.9126 40.472 92.4197 39.9555 93.0664 39.5834C93.7224 39.2112 94.4715 39.0251 95.3182 39.0251C96.0254 39.0251 96.6674 39.1646 97.2536 39.4345C97.8492 39.709 98.3423 40.0951 98.7424 40.5883C99.1518 41.0721 99.4356 41.649 99.5985 42.319H97.6444C97.4816 41.8631 97.1978 41.5002 96.7884 41.2396C96.379 40.9698 95.9044 40.8302 95.374 40.8302C94.8995 40.8302 94.4808 40.9419 94.1086 41.1652C93.7364 41.3792 93.4433 41.677 93.2339 42.0585C93.0339 42.4307 92.9362 42.8726 92.9362 43.3798C92.9362 43.8776 93.0339 44.3196 93.2339 44.7011C93.4433 45.0872 93.7271 45.3896 94.09 45.6129C94.4622 45.827 94.8809 45.9293 95.3554 45.9293C95.9137 45.9293 96.3976 45.7897 96.807 45.5013C97.2257 45.2175 97.5235 44.8406 97.7003 44.3661H99.6543C99.5147 45.036 99.2449 45.6269 98.8355 46.134C98.4354 46.6458 97.9329 47.0413 97.3281 47.3251C96.7326 47.5949 96.0626 47.7345 95.3182 47.7345Z" fill="#858585"/>
<path d="M105.099 47.7345C104.229 47.7345 103.462 47.5484 102.792 47.1762C102.122 46.804 101.591 46.2969 101.21 45.6502C100.838 44.9942 100.652 44.2358 100.652 43.3798C100.652 42.5237 100.838 41.7747 101.21 41.128C101.591 40.472 102.122 39.9555 102.792 39.5834C103.462 39.2112 104.229 39.0251 105.099 39.0251C105.979 39.0251 106.756 39.2112 107.426 39.5834C108.096 39.9555 108.621 40.472 109.007 41.128C109.389 41.7747 109.584 42.5237 109.584 43.3798C109.584 44.2358 109.389 44.9942 109.007 45.6502C108.621 46.2969 108.096 46.804 107.426 47.1762C106.756 47.5484 105.979 47.7345 105.099 47.7345ZM102.587 43.3798C102.587 43.8776 102.689 44.3196 102.903 44.7011C103.127 45.0872 103.424 45.3896 103.797 45.6129C104.178 45.827 104.616 45.9293 105.099 45.9293C105.606 45.9293 106.048 45.827 106.421 45.6129C106.802 45.3896 107.1 45.0872 107.314 44.7011C107.523 44.3196 107.63 43.8776 107.63 43.3798C107.63 42.8726 107.523 42.4307 107.314 42.0585C107.1 41.677 106.802 41.3792 106.421 41.1652C106.048 40.9419 105.606 40.8302 105.099 40.8302C104.616 40.8302 104.178 40.9419 103.797 41.1652C103.424 41.3792 103.127 41.677 102.903 42.0585C102.689 42.4307 102.587 42.8726 102.587 43.3798Z" fill="#858585"/>
<path d="M111.098 47.567V39.1926H112.717L115.695 43.5287L118.653 39.1926H120.273V47.567H118.374V42.5237L116.346 45.5013H115.025L112.996 42.5237V47.567H111.098Z" fill="#858585"/>
<path d="M122.267 47.567V39.1926H125.542C126.222 39.1926 126.813 39.3182 127.31 39.5648C127.804 39.816 128.19 40.1696 128.464 40.6255C128.734 41.0722 128.874 41.6072 128.874 42.226C128.874 42.8215 128.734 43.3519 128.464 43.8078C128.19 44.2684 127.804 44.622 127.31 44.8686C126.813 45.1198 126.222 45.2408 125.542 45.2408H124.165V47.567H122.267ZM124.165 43.6031H125.394C125.887 43.6031 126.268 43.4868 126.529 43.2495C126.799 43.0169 126.938 42.6726 126.938 42.226C126.938 41.7933 126.799 41.4583 126.529 41.221C126.268 40.9745 125.887 40.8488 125.394 40.8488H124.165V43.6031Z" fill="#858585"/>
<path d="M133.644 47.7345C132.909 47.7345 132.285 47.5903 131.764 47.3065C131.243 47.0087 130.838 46.5946 130.554 46.0596C130.28 45.5153 130.145 44.8686 130.145 44.1242V39.1926H132.043V43.9939C132.043 45.2873 132.574 45.9293 133.644 45.9293C134.709 45.9293 135.244 45.2873 135.244 43.9939V39.1926H137.142V44.1242C137.142 44.8686 136.998 45.5153 136.714 46.0596C136.44 46.5946 136.035 47.0087 135.505 47.3065C134.984 47.5903 134.36 47.7345 133.644 47.7345Z" fill="#858585"/>
<path d="M141.079 47.567V40.9791H138.418V39.1926H145.638V40.9791H142.977V47.567H141.079Z" fill="#858585"/>
<path d="M145.195 47.567L148.526 39.1926H150.387L153.719 47.567H151.672L151.113 46.1154H147.782L147.224 47.567H145.195ZM148.285 44.6266H150.629L149.457 41.556L148.285 44.6266Z" fill="#858585"/>
<path d="M154.819 47.567V39.1926H156.438L160.141 44.2917V39.1926H162.021V47.567H160.402L156.717 42.4307V47.567H154.819Z" fill="#858585"/>
<path d="M166.037 47.567V40.9791H163.376V39.1926H170.597V40.9791H167.935V47.567H166.037Z" fill="#858585"/>
<path d="M183.343 47.7345C182.496 47.7345 181.747 47.5484 181.091 47.1762C180.444 46.804 179.937 46.2969 179.565 45.6502C179.202 44.9942 179.025 44.2358 179.025 43.3798C179.025 42.5237 179.202 41.7747 179.565 41.128C179.937 40.472 180.444 39.9555 181.091 39.5834C181.747 39.2112 182.496 39.0251 183.343 39.0251C184.05 39.0251 184.692 39.1646 185.278 39.4345C185.874 39.709 186.367 40.0951 186.767 40.5883C187.177 41.0721 187.46 41.649 187.623 42.319H185.669C185.506 41.8631 185.222 41.5002 184.813 41.2396C184.404 40.9698 183.929 40.8302 183.399 40.8302C182.924 40.8302 182.505 40.9419 182.133 41.1652C181.761 41.3792 181.468 41.677 181.259 42.0585C181.059 42.4307 180.961 42.8726 180.961 43.3798C180.961 43.8776 181.059 44.3196 181.259 44.7011C181.468 45.0872 181.752 45.3896 182.115 45.6129C182.487 45.827 182.906 45.9293 183.38 45.9293C183.938 45.9293 184.422 45.7897 184.832 45.5013C185.25 45.2175 185.548 44.8406 185.725 44.3661H187.679C187.539 45.036 187.27 45.6269 186.86 46.134C186.46 46.6458 185.958 47.0413 185.353 47.3251C184.757 47.5949 184.087 47.7345 183.343 47.7345Z" fill="#858585"/>
<path d="M193.124 47.7345C192.254 47.7345 191.486 47.5484 190.816 47.1762C190.146 46.804 189.616 46.2969 189.234 45.6502C188.862 44.9942 188.676 44.2358 188.676 43.3798C188.676 42.5237 188.862 41.7747 189.234 41.128C189.616 40.472 190.146 39.9555 190.816 39.5834C191.486 39.2112 192.254 39.0251 193.124 39.0251C194.003 39.0251 194.78 39.2112 195.45 39.5834C196.12 39.9555 196.645 40.472 197.032 41.128C197.413 41.7747 197.609 42.5237 197.609 43.3798C197.609 44.2358 197.413 44.9942 197.032 45.6502C196.645 46.2969 196.12 46.804 195.45 47.1762C194.78 47.5484 194.003 47.7345 193.124 47.7345ZM190.611 43.3798C190.611 43.8776 190.714 44.3196 190.928 44.7011C191.151 45.0872 191.449 45.3896 191.821 45.6129C192.202 45.827 192.64 45.9293 193.124 45.9293C193.631 45.9293 194.073 45.827 194.445 45.6129C194.826 45.3896 195.124 45.0872 195.338 44.7011C195.547 44.3196 195.654 43.8776 195.654 43.3798C195.654 42.8726 195.547 42.4307 195.338 42.0585C195.124 41.677 194.826 41.3792 194.445 41.1652C194.073 40.9419 193.631 40.8302 193.124 40.8302C192.64 40.8302 192.202 40.9419 191.821 41.1652C191.449 41.3792 191.151 41.677 190.928 42.0585C190.714 42.4307 190.611 42.8726 190.611 43.3798Z" fill="#858585"/>
<path d="M199.122 47.567V39.1926H200.741L203.718 43.5287L206.677 39.1926H208.296V47.567H206.398V42.5237L204.37 45.5013H203.048L201.02 42.5237V47.567H199.122Z" fill="#858585"/>
<path d="M210.291 47.567V39.1925H213.567C214.246 39.1925 214.837 39.3181 215.335 39.5647C215.828 39.816 216.214 40.1695 216.488 40.6255C216.758 41.0721 216.898 41.6072 216.898 42.2259C216.898 42.8214 216.758 43.3518 216.488 43.8078C216.214 44.2684 215.828 44.6219 215.335 44.8685C214.837 45.1198 214.246 45.2407 213.567 45.2407H212.189V47.567H210.291ZM212.189 43.6031H213.418C213.911 43.6031 214.292 43.4867 214.553 43.2495C214.823 43.0168 214.962 42.6726 214.962 42.2259C214.962 41.7932 214.823 41.4583 214.553 41.221C214.292 40.9744 213.911 40.8488 213.418 40.8488H212.189V43.6031Z" fill="#858585"/>
<path d="M216.824 47.567L220.155 39.1926H222.016L225.347 47.567H223.3L222.742 46.1154H219.41L218.852 47.567H216.824ZM219.913 44.6266H222.258L221.085 41.556L219.913 44.6266Z" fill="#858585"/>
<path d="M226.448 47.567V39.1926H228.067L231.77 44.2917V39.1926H233.65V47.567H232.03L228.346 42.4307V47.567H226.448Z" fill="#858585"/>
<path d="M237.852 47.567V44.6266L234.763 39.1926H236.921L237.964 41.128L238.801 42.654L239.62 41.128L240.662 39.1926H242.821L239.75 44.608V47.567H237.852Z" fill="#858585"/>
</svg>
