<svg width="18" height="18" viewBox="0 0 18 18" fill="none" xmlns="http://www.w3.org/2000/svg">
<path d="M7.97491 0C12.3771 0 15.9498 3.57276 15.9498 7.97491C15.9498 12.3771 12.3771 15.9498 7.97491 15.9498C3.57276 15.9498 0 12.3771 0 7.97491C0 3.57276 3.57276 0 7.97491 0ZM7.97491 14.1776C11.4019 14.1776 14.1776 11.4019 14.1776 7.97491C14.1776 4.54792 11.4019 1.7722 7.97491 1.7722C4.54792 1.7722 1.7722 4.54792 1.7722 7.97491C1.7722 11.4019 4.54792 14.1776 7.97491 14.1776ZM15.4938 14.2406L18 16.7469L16.7469 18L14.2406 15.4938L15.4938 14.2406Z" fill="black"/>
</svg>
